<svg width="428" height="160" viewBox="0 0 428 160" fill="none" xmlns="http://www.w3.org/2000/svg">
<path d="M0 3H428V4H0V3Z" fill="#747D88" fill-opacity="0.1"/>
<path d="M0 29H428V30H0V29Z" fill="#747D88" fill-opacity="0.1"/>
<path d="M0 55H428V56H0V55Z" fill="#747D88" fill-opacity="0.1"/>
<path d="M0 81H428V82H0V81Z" fill="#747D88" fill-opacity="0.1"/>
<path d="M0 107H428V108H0V107Z" fill="#747D88" fill-opacity="0.1"/>
<path d="M0 133H428V134H0V133Z" fill="#747D88" fill-opacity="0.1"/>
<path d="M-20.9999 157C-22.4999 105.333 -18.8999 4.60011 7.50008 15.0001C40.5001 28.0001 62 169 87.5 157C113 145 115 3.50019 141.5 8.00019C168 12.5002 178.5 157 194 157C209.5 157 234.5 59.5 239 32.5C243.5 5.5 261.5 -17.4999 286 48.5001C304.21 97.5552 323 156 347.5 153C372 150 391.14 19.7086 398.5 8.00019C409.5 -9.49987 421.5 11.5001 439 143" stroke="url(#paint0_linear_41_855)" stroke-opacity="0.15" stroke-width="4" stroke-linejoin="round"/>
<g filter="url(#filter0_d_41_855)">
<path d="M-3 132C55.0531 132 80.5612 55.3684 124.541 55.3684C168.52 55.3684 193.149 107.12 230.971 107.12C268.794 107.12 308.376 28 428 28" stroke="url(#paint1_linear_41_855)" stroke-width="4"/>
</g>
<g filter="url(#filter1_d_41_855)">
<path d="M-14 33C27.3523 33 76.945 107 98.9409 107C120.937 107 116.485 116 142 116C167.515 116 242.354 81 279.308 81C316.261 81 353.214 107 428 107" stroke="url(#paint2_linear_41_855)" stroke-width="4"/>
</g>
<defs>
<filter id="filter0_d_41_855" x="-13" y="26" width="451" height="128" filterUnits="userSpaceOnUse" color-interpolation-filters="sRGB">
<feFlood flood-opacity="0" result="BackgroundImageFix"/>
<feColorMatrix in="SourceAlpha" type="matrix" values="0 0 0 0 0 0 0 0 0 0 0 0 0 0 0 0 0 0 127 0" result="hardAlpha"/>
<feOffset dy="10"/>
<feGaussianBlur stdDeviation="5"/>
<feColorMatrix type="matrix" values="0 0 0 0 0 0 0 0 0 0 0 0 0 0 0 0 0 0 0.25 0"/>
<feBlend mode="normal" in2="BackgroundImageFix" result="effect1_dropShadow_41_855"/>
<feBlend mode="normal" in="SourceGraphic" in2="effect1_dropShadow_41_855" result="shape"/>
</filter>
<filter id="filter1_d_41_855" x="-24" y="31" width="462" height="107" filterUnits="userSpaceOnUse" color-interpolation-filters="sRGB">
<feFlood flood-opacity="0" result="BackgroundImageFix"/>
<feColorMatrix in="SourceAlpha" type="matrix" values="0 0 0 0 0 0 0 0 0 0 0 0 0 0 0 0 0 0 127 0" result="hardAlpha"/>
<feOffset dy="10"/>
<feGaussianBlur stdDeviation="5"/>
<feColorMatrix type="matrix" values="0 0 0 0 0 0 0 0 0 0 0 0 0 0 0 0 0 0 0.25 0"/>
<feBlend mode="normal" in2="BackgroundImageFix" result="effect1_dropShadow_41_855"/>
<feBlend mode="normal" in="SourceGraphic" in2="effect1_dropShadow_41_855" result="shape"/>
</filter>
<linearGradient id="paint0_linear_41_855" x1="-10.8786" y1="94.1335" x2="27.128" y2="275.109" gradientUnits="userSpaceOnUse">
<stop stop-color="#02C2FF"/>
<stop offset="1" stop-color="#0B1672"/>
</linearGradient>
<linearGradient id="paint1_linear_41_855" x1="-3" y1="28" x2="44.6016" y2="224.467" gradientUnits="userSpaceOnUse">
<stop stop-color="#7D54F2"/>
<stop offset="1" stop-color="white"/>
</linearGradient>
<linearGradient id="paint2_linear_41_855" x1="-4.00325" y1="81.0003" x2="8.33647" y2="183.515" gradientUnits="userSpaceOnUse">
<stop stop-color="#54D6F2"/>
<stop offset="1" stop-color="#6A54F2"/>
</linearGradient>
</defs>
</svg>
