<svg width="23" height="20" viewBox="0 0 23 20" fill="none" xmlns="http://www.w3.org/2000/svg">
<path d="M21.9711 4.84699C21.7257 3.92316 21.0028 3.19559 20.085 2.94867C18.4213 2.5 11.7502 2.5 11.7502 2.5C11.7502 2.5 5.07908 2.5 3.41537 2.94867C2.49752 3.19563 1.77463 3.92316 1.52928 4.84699C1.0835 6.52148 1.0835 10.0152 1.0835 10.0152C1.0835 10.0152 1.0835 13.5088 1.52928 15.1833C1.77463 16.1071 2.49752 16.8044 3.41537 17.0513C5.07908 17.5 11.7502 17.5 11.7502 17.5C11.7502 17.5 18.4213 17.5 20.085 17.0513C21.0028 16.8044 21.7257 16.1071 21.9711 15.1833C22.4169 13.5088 22.4169 10.0152 22.4169 10.0152C22.4169 10.0152 22.4169 6.52148 21.9711 4.84699ZM9.56835 13.1871V6.84316L15.1441 10.0152L9.56835 13.1871Z" fill="#02C2FF"/>
</svg>
