<svg width="30" height="30" viewBox="0 0 30 30" fill="none" xmlns="http://www.w3.org/2000/svg">
<circle cx="15" cy="15" r="15" fill="#54CCF2"/>
<path d="M10.0007 15.8334C10.0007 14.4584 10.559 13.2084 11.4673 12.3L10.284 11.1167C9.08398 12.325 8.33398 13.9917 8.33398 15.8334C8.33398 19.2334 10.8757 22.0334 14.1673 22.4417V20.7584C11.809 20.3584 10.0007 18.3084 10.0007 15.8334ZM21.6673 15.8334C21.6673 12.15 18.684 9.16671 15.0007 9.16671C14.9507 9.16671 14.9007 9.17504 14.8507 9.17504L15.759 8.26671L14.584 7.08337L11.6673 10L14.584 12.9167L15.759 11.7417L14.859 10.8417C14.909 10.8417 14.959 10.8334 15.0007 10.8334C17.759 10.8334 20.0007 13.075 20.0007 15.8334C20.0007 18.3084 18.1923 20.3584 15.834 20.7584V22.4417C19.1257 22.0334 21.6673 19.2334 21.6673 15.8334Z" fill="white"/>
</svg>
