<svg width="30" height="30" viewBox="0 0 30 30" fill="none" xmlns="http://www.w3.org/2000/svg">
<circle cx="15" cy="15" r="15" fill="#54CCF2"/>
<path d="M9.78 19.26C10.2333 18.9 10.44 18.7333 10.4 18.76C11.7067 17.68 12.7333 16.7933 13.48 16.1C14.24 15.4067 14.88 14.68 15.4 13.92C15.92 13.16 16.18 12.42 16.18 11.7C16.18 11.1533 16.0533 10.7267 15.8 10.42C15.5467 10.1133 15.1667 9.96 14.66 9.96C14.1533 9.96 13.7533 10.1533 13.46 10.54C13.18 10.9133 13.04 11.4467 13.04 12.14H9.74C9.76667 11.0067 10.0067 10.06 10.46 9.3C10.9267 8.54 11.5333 7.98 12.28 7.62C13.04 7.26 13.88 7.08 14.8 7.08C16.3867 7.08 17.58 7.48667 18.38 8.3C19.1933 9.11333 19.6 10.1733 19.6 11.48C19.6 12.9067 19.1133 14.2333 18.14 15.46C17.1667 16.6733 15.9267 17.86 14.42 19.02H19.82V21.8H9.78V19.26Z" fill="white"/>
</svg>
