<?xml version="1.0" standalone="no"?>
<!DOCTYPE svg PUBLIC "-//W3C//DTD SVG 1.1//EN" "http://www.w3.org/Graphics/SVG/1.1/DTD/svg11.dtd" >
<svg xmlns="http://www.w3.org/2000/svg" xmlns:xlink="http://www.w3.org/1999/xlink" version="1.1">
<metadata></metadata>
<defs>
<font id="gogoiaregular" horiz-adv-x="774" >
<font-face units-per-em="2048" ascent="1536" descent="-512" />
<missing-glyph horiz-adv-x="507" />
<glyph horiz-adv-x="0" />
<glyph unicode="&#xd;" horiz-adv-x="507" />
<glyph unicode=" "  horiz-adv-x="507" />
<glyph unicode="&#x09;" horiz-adv-x="507" />
<glyph unicode="&#xa0;" horiz-adv-x="507" />
<glyph unicode="!" horiz-adv-x="241" d="M51 70q0 29 20.5 48t49.5 19t49 -19.5t20 -47.5q0 -29 -20 -49.5t-49 -20.5t-49.5 20.5t-20.5 49.5zM76 313v1076q0 18 13 31.5t32 13.5q18 0 31.5 -13.5t13.5 -31.5v-1076q0 -18 -13.5 -31.5t-31.5 -13.5t-31.5 13.5t-13.5 31.5z" />
<glyph unicode="&#x22;" horiz-adv-x="440" d="M82 1378q0 23 16.5 39.5t40.5 16.5q23 0 39.5 -16.5t16.5 -39.5l-9 -211q0 -18 -14 -31.5t-33 -13.5q-20 0 -34.5 13.5t-14.5 31.5zM246 1378q0 23 16.5 39.5t40.5 16.5q23 0 39 -16.5t16 -39.5l-8 -211q0 -18 -14 -31.5t-33 -13.5q-20 0 -34.5 13.5t-14.5 31.5z" />
<glyph unicode="#" horiz-adv-x="864" d="M125 311q0 18 13.5 31.5t31.5 13.5h111v725h-111q-18 0 -31.5 13.5t-13.5 31.5t13.5 31.5t31.5 13.5h111v218q0 18 13 31.5t32 13.5q18 0 31.5 -13.5t13.5 -31.5v-218h155v218q0 18 13.5 31.5t31.5 13.5t31.5 -13.5t13.5 -31.5v-218h111q18 0 31.5 -13t13.5 -32 q0 -18 -13.5 -31.5t-31.5 -13.5h-111v-725h111q18 0 31.5 -13t13.5 -32q0 -18 -13.5 -31.5t-31.5 -13.5h-111v-221q0 -18 -13 -31.5t-32 -13.5q-18 0 -31.5 13.5t-13.5 31.5v221h-155v-221q0 -18 -13.5 -31.5t-31.5 -13.5t-31.5 13.5t-13.5 31.5v221h-111q-18 0 -31.5 13.5 t-13.5 31.5zM371 356h155v725h-155v-725z" />
<glyph unicode="$" horiz-adv-x="671" d="M72 285q0 18 13 31.5t32 13.5q18 0 31.5 -13.5t13.5 -31.5q0 -63 41 -109.5t106 -56.5v667q-104 39 -165.5 115t-61.5 166v63q0 96 65.5 166t161.5 80v78q0 18 11.5 27.5t25.5 9.5t25.5 -9t11.5 -28v-80q90 -16 148.5 -84.5t58.5 -159.5q0 -18 -13.5 -31.5t-31.5 -13.5 t-31.5 13.5t-13.5 31.5q0 53 -33 95.5t-84 56.5v-426q98 -39 157.5 -116.5t59.5 -170.5v-284q0 -94 -61.5 -166t-155.5 -88v-80q0 -18 -11.5 -27.5t-25.5 -9.5t-25.5 9t-11.5 28v78q-102 10 -169.5 82.5t-67.5 173.5zM172 1067q0 -55 37 -104.5t100 -77.5v401 q-59 -10 -98 -53t-39 -103v-63zM383 123q55 16 91 60t36 102v284q0 56 -35 107t-92 82v-635z" />
<glyph unicode="%" horiz-adv-x="620" d="M20 16q0 -14 11.5 -25t27.5 -11q27 0 35 26l504 1397q2 4 2 14q0 14 -11 25.5t-26 11.5q-23 0 -33 -24l-507 -1399q-3 -5 -3 -15zM78 1288q0 59 43 102.5t102 43.5q60 0 103 -43t43 -103q0 -59 -43 -102t-103 -43q-59 0 -102 43t-43 102zM156 1288q0 -27 20.5 -47 t46.5 -20q29 0 48.5 20.5t19.5 46.5q0 29 -19.5 48.5t-48.5 19.5q-26 0 -46.5 -19.5t-20.5 -48.5zM254 145q0 59 43 102.5t102 43.5t102.5 -43t43.5 -103q0 -59 -43 -102t-103 -43q-59 0 -102 43t-43 102zM332 145q0 -27 20.5 -47t46.5 -20q29 0 48.5 20.5t19.5 46.5 q0 29 -19.5 48.5t-48.5 19.5q-27 0 -47 -19.5t-20 -48.5z" />
<glyph unicode="&#x26;" horiz-adv-x="1241" d="M82 467q0 121 55.5 226.5t152.5 174t216 82.5l-19 27l-2 4q-51 78 -51 168q0 82 41 152.5t111.5 111.5t152.5 41t153 -41t111.5 -111.5t40.5 -152.5t-40.5 -152.5t-111.5 -111.5t-153 -41q-16 0 -53 4l283 -399v184q0 23 12 34t29 11q16 0 28.5 -11.5t12.5 -33.5v-230 q0 -33 -7 -63l189 -268q8 -11 8 -27q0 -18 -14.5 -31.5t-32.5 -13.5q-20 0 -35 20l-151 218q-61 -113 -180 -185.5t-259 -72.5q-133 0 -244.5 65.5t-177 177t-65.5 244.5zM172 467q0 -109 53.5 -200t144.5 -144t199 -53q125 0 235.5 68.5t147.5 174.5l-385 551 q-109 0 -198.5 -54t-143 -144.5t-53.5 -198.5zM524 1149q0 -88 63.5 -151.5t151.5 -63.5q90 0 152.5 63.5t62.5 151.5q0 90 -62.5 152.5t-152.5 62.5q-88 0 -151.5 -62.5t-63.5 -152.5z" />
<glyph unicode="'" horiz-adv-x="276" d="M82 1378q0 23 16.5 39.5t40.5 16.5q23 0 39.5 -16.5t16.5 -39.5l-9 -211q0 -18 -14 -31.5t-33 -13.5q-20 0 -34.5 13.5t-14.5 31.5z" />
<glyph unicode="(" horiz-adv-x="452" d="M133 158v1118q0 102 75 175t179 73q18 0 31.5 -13.5t13.5 -31.5t-13 -31.5t-32 -13.5q-68 0 -116 -46.5t-48 -111.5v-1118q0 -66 48 -112t116 -46q19 0 32 -13.5t13 -31.5t-13 -31.5t-32 -13.5q-104 0 -179 72.5t-75 175.5z" />
<glyph unicode=")" horiz-adv-x="452" d="M20 -45q0 18 13.5 31.5t32.5 13.5q67 0 115 46t48 112v1118q0 66 -48 112t-115 46q-18 0 -32 13t-14 32q0 18 13.5 31.5t32.5 13.5q104 0 178.5 -73t74.5 -175v-1118q0 -102 -74.5 -175t-178.5 -73q-18 0 -32 13.5t-14 31.5z" />
<glyph unicode="*" horiz-adv-x="507" d="M63 1356q4 16 19.5 23t32.5 3l98 -32v104q0 16 12.5 28.5t28.5 12.5t28.5 -12.5t12.5 -28.5v-104l98 32q4 2 13 2q12 0 24 -8t14 -20q2 -5 2 -13q0 -14 -7 -25t-21 -13l-99 -31l62 -84q8 -12 8 -23q0 -23 -18 -34q-8 -8 -23 -9q-20 0 -33 19l-61 84l-61 -84 q-12 -18 -33 -19q-14 0 -23 9q-18 12 -18 34q0 10 8 23l61 84l-98 31q-16 4 -24.5 19t-2.5 32z" />
<glyph unicode="+" horiz-adv-x="847" d="M61 512q0 18 13.5 31.5t31.5 13.5h273v268q0 18 13.5 31.5t31.5 13.5t31.5 -13t13.5 -32v-268h272q19 0 32 -13.5t13 -31.5t-13 -31.5t-32 -13.5h-272v-277q0 -18 -13.5 -31.5t-31.5 -13.5t-31.5 13.5t-13.5 31.5v277h-273q-18 0 -31.5 13.5t-13.5 31.5z" />
<glyph unicode="," horiz-adv-x="364" d="M102 68q0 31 19.5 50t52.5 19q31 0 49.5 -18.5t18.5 -48.5q0 -14 -9 -39l-43 -133q-4 -15 -15 -23t-23 -8q-20 0 -33 14.5t-6 36.5l22 94q-33 18 -33 56z" />
<glyph unicode="-" horiz-adv-x="579" d="M0 512q0 18 13.5 31.5t31.5 13.5h490q18 0 31.5 -13.5t13.5 -31.5t-13.5 -31.5t-31.5 -13.5h-490q-18 0 -31.5 13.5t-13.5 31.5z" />
<glyph unicode="." horiz-adv-x="241" d="M51 70q0 29 20.5 48t49.5 19t49 -19.5t20 -47.5q0 -29 -20 -49.5t-49 -20.5t-49.5 20.5t-20.5 49.5z" />
<glyph unicode="/" horiz-adv-x="710" d="M102 37q-6 -20 7.5 -38.5t35.5 -18.5q33 -1 41 30l437 1389q8 23 -7.5 39t-35.5 16q-29 0 -39 -31z" />
<glyph unicode="0" d="M133 227q0 -102 75 -174.5t179 -72.5q105 0 179.5 72.5t74.5 174.5v979q0 102 -74.5 175t-179.5 73q-104 0 -179 -72.5t-75 -175.5v-979zM223 227v979q0 66 48 112t116 46t116 -46t48 -112v-979q0 -66 -48 -111.5t-116 -45.5t-116 46t-48 111z" />
<glyph unicode="1" horiz-adv-x="423" d="M82 1253q0 18 12 31l135 143q14 14 33 15q18 0 31.5 -12.5t13.5 -32.5v-1352q0 -18 -13 -31.5t-32 -13.5q-18 0 -31.5 13.5t-13.5 31.5v1239l-57 -61q-12 -12 -33 -13q-16 0 -31 11q-14 12 -14 32z" />
<glyph unicode="2" horiz-adv-x="655" d="M84 59l371 1086q10 27 12 50.5t2 45.5q0 47 -31.5 85t-91.5 38q-53 0 -85 -35t-34 -88q0 -18 -13 -30.5t-32 -12.5q-18 0 -31.5 13.5t-13.5 31.5q0 90 61.5 150.5t149.5 60.5t149.5 -59.5t61.5 -153.5q0 -57 -16 -106l-355 -1045h306q20 0 32.5 -12t12.5 -33 q0 -18 -13.5 -31.5t-31.5 -13.5h-367q-23 0 -37 19.5t-6 39.5z" />
<glyph unicode="3" horiz-adv-x="661" d="M61 238q0 18 13.5 31.5t31.5 13.5t32 -13.5t14 -31.5q0 -72 50 -120t124 -48q72 0 123 49t51 119v286q0 76 -48.5 122t-125.5 46h-109q-18 0 -31.5 13.5t-13.5 31.5t13.5 31.5t31.5 13.5h109q74 0 118.5 43t44.5 115v266q0 66 -48 112t-115 46q-70 0 -117 -46t-47 -112 q0 -18 -13.5 -31.5t-31.5 -13.5t-31.5 13.5t-13.5 31.5q0 102 73.5 175t180.5 73q104 0 179 -72.5t75 -175.5v-266q0 -66 -41 -124t-107 -77q68 -20 113 -82.5t45 -132.5v-286q0 -70 -36 -129.5t-96.5 -94t-131.5 -34.5q-111 0 -188 74.5t-77 183.5z" />
<glyph unicode="4" horiz-adv-x="743" d="M102 944v445q0 18 13.5 31.5t31.5 13.5t32 -13.5t14 -31.5v-445q0 -29 22.5 -50.5t50.5 -21.5h254v517q0 18 13.5 31.5t31.5 13.5q19 0 32 -13.5t13 -31.5v-1344q0 -18 -13 -31.5t-32 -13.5q-18 0 -31.5 13.5t-13.5 31.5v737h-254q-68 0 -116 47.5t-48 114.5z" />
<glyph unicode="5" horiz-adv-x="792" d="M133 272q0 18 12.5 31.5t32.5 13.5q18 0 31.5 -13t13.5 -32q0 -76 53.5 -129t129.5 -53t130 53.5t54 128.5v482q0 74 -52.5 127t-127.5 53q-76 0 -128.5 -53.5t-52.5 -126.5q0 -18 -13 -32.5t-32 -14.5q-18 0 -31.5 14t-13.5 33v635q0 18 13.5 31.5t31.5 13.5h394 q18 0 31.5 -13.5t13.5 -31.5t-13.5 -32t-31.5 -14h-349v-401q37 43 83 62.5t110 19.5q67 0 126.5 -37t95.5 -99.5t36 -133.5v-482q0 -74 -37 -136t-100.5 -99t-136.5 -37q-74 0 -136.5 37t-99.5 99.5t-37 135.5z" />
<glyph unicode="6" d="M133 227v979q0 102 75 175t179 73q106 0 180 -72.5t74 -175.5q0 -18 -13.5 -31.5t-31.5 -13.5t-31.5 13.5t-13.5 31.5q0 66 -47 112t-117 46q-68 0 -116 -46t-48 -112v-264q33 43 77 62.5t108 19.5q59 0 113 -34t87 -90t33 -124v-549q0 -102 -74.5 -174.5t-179.5 -72.5 q-104 0 -179 72.5t-75 174.5zM223 227q0 -66 48 -111.5t116 -45.5t116 46t48 111v549q0 66 -48 112t-116 46t-116 -46t-48 -112v-549z" />
<glyph unicode="7" horiz-adv-x="679" d="M61 1389q0 -18 13.5 -32t31.5 -14h379l-303 -1290q-6 -23 9.5 -38t37.5 -15q33 0 41 31l316 1343q6 27 -6.5 43.5t-38.5 16.5h-435q-18 0 -31.5 -13.5t-13.5 -31.5z" />
<glyph unicode="8" horiz-adv-x="794" d="M133 238q0 -70 36 -129.5t96.5 -94t131.5 -34.5q72 0 132.5 34.5t96.5 94t36 129.5v346q0 70 -45.5 132t-112.5 83q66 18 106.5 76.5t40.5 123.5v207q0 111 -73.5 179.5t-180.5 68.5q-106 0 -180 -68.5t-74 -179.5v-207q0 -66 41 -124t107 -76q-68 -20 -113 -83t-45 -132 v-346zM223 238v346q0 76 48 122t126 46t126 -46.5t48 -121.5v-346q0 -70 -51 -119t-123 -49t-123 49t-51 119zM233 999v207q0 72 45.5 115t118.5 43q74 0 119 -43t45 -115v-207q0 -72 -45 -114.5t-119 -42.5t-119 43t-45 114z" />
<glyph unicode="9" d="M133 227q0 18 13.5 31.5t31.5 13.5t31.5 -13t13.5 -32q0 -66 47 -111.5t117 -45.5q68 0 116 46t48 111v265q-33 -43 -77 -62.5t-107 -19.5q-60 0 -114 33.5t-87 90t-33 123.5v549q0 102 75 175t179 73t179 -72.5t75 -175.5v-979q0 -102 -74.5 -174.5t-179.5 -72.5 q-106 0 -180 72.5t-74 174.5zM223 657q0 -65 48 -111t116 -46t116 46t48 111v549q0 66 -48 112t-116 46t-116 -46t-48 -112v-549z" />
<glyph unicode=":" horiz-adv-x="241" d="M51 70q0 29 20.5 48t49.5 19t49 -19.5t20 -47.5q0 -29 -20 -49.5t-49 -20.5t-49.5 20.5t-20.5 49.5zM51 719q0 29 20.5 48t49.5 19t49 -19t20 -48t-20 -49.5t-49 -20.5t-49.5 20.5t-20.5 49.5z" />
<glyph unicode=";" horiz-adv-x="245" d="M51 68q0 31 19.5 50t52.5 19q31 0 49 -18.5t18 -48.5q0 -14 -8 -39l-43 -133q-4 -15 -15 -23t-24 -8q-20 0 -32.5 14.5t-6.5 36.5l23 94q-33 18 -33 56zM51 719q0 29 20.5 48t49.5 19t49 -19t20 -48t-20 -49.5t-49 -20.5t-49.5 20.5t-20.5 49.5z" />
<glyph unicode="&#x3c;" horiz-adv-x="419" d="M20 514q0 14 7 23l268 464q14 23 37 23q18 0 32.5 -13.5t14.5 -31.5q0 -10 -6 -23l-256 -444l256 -444q6 -13 6 -23q0 -18 -14.5 -31.5t-32.5 -13.5q-23 0 -37 23l-268 469q-6 10 -7 22z" />
<glyph unicode="=" horiz-adv-x="1015" d="M223 383q0 18 13.5 31.5t31.5 13.5h490q18 0 31.5 -13.5t13.5 -31.5t-13.5 -31.5t-31.5 -13.5h-490q-18 0 -31.5 13.5t-13.5 31.5zM223 641q0 18 13.5 31.5t31.5 13.5h490q18 0 31.5 -13.5t13.5 -31.5t-13.5 -31.5t-31.5 -13.5h-490q-18 0 -31.5 13.5t-13.5 31.5z" />
<glyph unicode="&#x3e;" horiz-adv-x="419" d="M41 45q0 10 6 23l256 444l-256 444q-6 13 -6 23q0 18 14.5 31.5t32.5 13.5q23 0 37 -23l268 -464q6 -8 6 -23q0 -12 -6 -22l-268 -469q-14 -23 -37 -23q-18 0 -32.5 13.5t-14.5 31.5z" />
<glyph unicode="?" horiz-adv-x="755" d="M82 1163q0 78 39 145.5t106.5 106.5t145.5 39t145.5 -39t106.5 -106.5t39 -145.5q0 -109 -73 -190.5t-179 -98.5v-561q0 -18 -13.5 -31.5t-31.5 -13.5t-31.5 13.5t-13.5 31.5v605q0 18 13 31.5t32 13.5h6q84 0 142 59t58 141q0 84 -58 142.5t-142 58.5 q-82 0 -141.5 -58.5t-59.5 -142.5q0 -18 -13.5 -31.5t-31.5 -13.5t-31.5 13.5t-13.5 31.5zM297 70q0 29 20.5 48t49.5 19q28 0 48.5 -19.5t20.5 -47.5q0 -29 -20.5 -49.5t-48.5 -20.5q-29 0 -49.5 20.5t-20.5 49.5z" />
<glyph unicode="@" horiz-adv-x="1163" d="M102 555v324q0 129 64.5 237.5t175.5 172t240 63.5t239.5 -63.5t175 -172t64.5 -237.5v-396q0 -59 -45 -104t-105 -45q-47 0 -82.5 27.5t-52.5 72.5q-37 -45 -88 -72.5t-106 -27.5q-104 0 -179 72.5t-75 175.5v59q0 102 74.5 175t179.5 73q53 0 98 -22.5t65 -59.5v43 q0 72 -45 115t-118 43q-27 0 -62 -12.5t-59 -32.5q-12 -10 -29 -11q-16 0 -28.5 13.5t-12.5 31.5q0 20 19 37q35 29 82 46.5t90 17.5q104 0 179 -73t75 -175v-367q0 -31 22.5 -53t52.5 -22q31 0 53.5 22.5t22.5 52.5v396q0 109 -54 200.5t-147.5 145t-203.5 53.5 q-111 0 -204 -53.5t-147.5 -145.5t-54.5 -200v-324q0 -109 54.5 -201t147.5 -145t204 -53q100 0 190 47q12 6 21 6q14 0 25 -11.5t11 -27.5q0 -20 -22 -33q-104 -55 -225 -55q-129 0 -240 63.5t-175.5 172t-64.5 237.5zM418 582q0 -72 45 -115t119 -43t118.5 43t44.5 115v59 q0 72 -45 115t-118 43q-74 0 -119 -43t-45 -115v-59z" />
<glyph unicode="A" horiz-adv-x="753" d="M133 45v1151q0 70 34 129t90 94t120 35q63 0 119.5 -35t90.5 -94t34 -129v-1151q0 -18 -13.5 -31.5t-32.5 -13.5q-18 0 -31.5 13.5t-13.5 31.5v627h-307v-627q0 -18 -13 -31.5t-32 -13.5q-18 0 -31.5 13.5t-13.5 31.5zM223 762h307v434q0 72 -44 120t-109 48 q-66 0 -110 -48t-44 -120v-434z" />
<glyph unicode="B" horiz-adv-x="825" d="M133 45v1341q0 18 13.5 33t31.5 15h148q94 0 161.5 -71t67.5 -169q0 -123 -98 -180q145 -53 231 -186.5t86 -309.5q0 -143 -56 -262t-151.5 -187.5t-208.5 -68.5h-182q-16 0 -29.5 13.5t-13.5 31.5zM223 90h135q91 0 165.5 56.5t117.5 154.5t43 217t-44 218.5t-119 157.5 t-163 58h-135v-862zM223 1042h103q57 0 98 45.5t41 106.5t-41 105t-98 44h-103v-301z" />
<glyph unicode="C" horiz-adv-x="743" d="M133 227v979q0 102 75 175t179 73q106 0 180 -72.5t74 -175.5q0 -18 -13.5 -31.5t-31.5 -13.5t-31.5 13.5t-13.5 31.5q0 66 -47 112t-117 46q-68 0 -116 -46t-48 -112v-979q0 -66 48 -111.5t116 -45.5q70 0 117 46t47 111q0 18 13.5 31.5t31.5 13.5t31.5 -13t13.5 -32 q0 -102 -73.5 -174.5t-180.5 -72.5q-104 0 -179 72.5t-75 174.5z" />
<glyph unicode="D" d="M133 45v1344q0 18 13.5 31.5t31.5 13.5h205q70 0 129 -34t94 -93.5t35 -130.5v-918q0 -72 -35 -131t-94 -93t-129 -34h-205q-18 0 -31.5 13.5t-13.5 31.5zM223 90h160q70 0 119 49t49 119v918q0 69 -49 118t-119 49h-160v-1253z" />
<glyph unicode="E" horiz-adv-x="602" d="M133 162v1110q0 68 48 115t116 47h147q18 0 31.5 -13.5t13.5 -31.5t-13 -32t-32 -14h-147q-29 0 -51.5 -21.5t-22.5 -49.5v-842h221q18 0 31.5 -13.5t13.5 -31.5t-13 -31.5t-32 -13.5h-221v-178q0 -29 22.5 -50.5t51.5 -21.5h147q18 0 31.5 -13.5t13.5 -31.5t-13 -31.5 t-32 -13.5h-147q-68 0 -116 47t-48 115z" />
<glyph unicode="F" horiz-adv-x="696" d="M133 45v1227q0 68 48 115t116 47h283q18 0 31.5 -13.5t13.5 -31.5t-13.5 -32t-31.5 -14h-283q-29 0 -51.5 -21.5t-22.5 -49.5v-490h260q18 0 31.5 -13t13.5 -32q0 -18 -13 -31.5t-32 -13.5h-260v-647q0 -18 -13 -31.5t-32 -13.5q-18 0 -31.5 13.5t-13.5 31.5z" />
<glyph unicode="G" d="M133 227v979q0 102 75 175t179 73q106 0 180 -72.5t74 -175.5q0 -18 -13.5 -31.5t-31.5 -13.5t-31.5 13.5t-13.5 31.5q0 66 -47 112t-117 46q-68 0 -116 -46t-48 -112v-979q0 -66 48 -111.5t116 -45.5q70 0 117 46t47 111v445h-125q-18 0 -31.5 13t-13.5 32 q0 18 13.5 31.5t31.5 13.5h170q18 0 31.5 -13.5t13.5 -31.5v-490q0 -102 -73.5 -174.5t-180.5 -72.5q-104 0 -179 72.5t-75 174.5z" />
<glyph unicode="H" horiz-adv-x="753" d="M133 45v1344q0 18 13.5 31.5t31.5 13.5t31.5 -13.5t13.5 -31.5v-627h307v627q0 18 13.5 31.5t31.5 13.5t32 -13.5t14 -31.5v-1344q0 -18 -13.5 -31.5t-32.5 -13.5q-18 0 -31.5 13.5t-13.5 31.5v627h-307v-627q0 -18 -13 -31.5t-32 -13.5q-18 0 -31.5 13.5t-13.5 31.5z " />
<glyph unicode="I" horiz-adv-x="356" d="M133 45v1344q0 18 13.5 31.5t31.5 13.5t31.5 -13.5t13.5 -31.5v-1344q0 -18 -13 -31.5t-32 -13.5q-18 0 -31.5 13.5t-13.5 31.5z" />
<glyph unicode="J" horiz-adv-x="661" d="M20 227q0 18 13.5 31.5t32.5 13.5q18 0 31.5 -13t13.5 -32q0 -66 47 -111.5t116 -45.5q68 0 116 46t48 111v1162q0 18 13.5 31.5t31.5 13.5q19 0 32 -13.5t13 -31.5v-1162q0 -102 -74.5 -174.5t-179.5 -72.5q-106 0 -180 72.5t-74 174.5z" />
<glyph unicode="K" horiz-adv-x="749" d="M133 45v1344q0 18 13.5 31.5t31.5 13.5t31.5 -13.5t13.5 -31.5v-529h144q35 0 60.5 26.5t25.5 63.5v246q0 18 13 31.5t32 13.5q18 0 31.5 -13.5t13.5 -31.5v-246q0 -59 -45 -106q69 -8 109 -54.5t40 -111.5v-633q0 -18 -13 -31.5t-32 -13.5q-18 0 -31.5 13.5t-13.5 31.5 v633q0 39 -26.5 65.5t-65.5 26.5h-242v-725q0 -18 -13 -31.5t-32 -13.5q-18 0 -31.5 13.5t-13.5 31.5z" />
<glyph unicode="L" horiz-adv-x="632" d="M133 162v1227q0 18 13.5 31.5t31.5 13.5t31.5 -13.5t13.5 -31.5v-1227q0 -29 22.5 -50.5t51.5 -21.5h250q18 0 31.5 -13.5t13.5 -31.5t-13.5 -31.5t-31.5 -13.5h-250q-68 0 -116 47t-48 115z" />
<glyph unicode="M" horiz-adv-x="790" d="M133 45v1344q0 18 13.5 31.5t31.5 13.5q14 0 26.5 -9.5t16.5 -23.5l174 -549l174 549q4 14 16.5 23.5t26.5 9.5q18 0 31.5 -13.5t13.5 -31.5v-1344q0 -18 -13 -31.5t-32 -13.5q-18 0 -31.5 13.5t-13.5 31.5v1063l-127 -399q-10 -37 -45 -37t-45 37l-127 399v-1063 q0 -18 -13 -31.5t-32 -13.5q-18 0 -31.5 13.5t-13.5 31.5z" />
<glyph unicode="N" d="M133 45v1344q0 18 13.5 31.5t31.5 13.5q14 0 26.5 -8.5t16.5 -22.5l330 -1063v1049q0 18 13.5 31.5t31.5 13.5t31.5 -13.5t13.5 -31.5v-1344q0 -18 -13.5 -31.5t-31.5 -13.5q-14 0 -26.5 8t-16.5 23l-330 1063v-1049q0 -18 -13 -31.5t-32 -13.5q-18 0 -31.5 13.5 t-13.5 31.5z" />
<glyph unicode="O" d="M133 227q0 -102 75 -174.5t179 -72.5q105 0 179.5 72.5t74.5 174.5v979q0 102 -74.5 175t-179.5 73q-104 0 -179 -72.5t-75 -175.5v-979zM223 227v979q0 66 48 112t116 46t116 -46t48 -112v-979q0 -66 -48 -111.5t-116 -45.5t-116 46t-48 111z" />
<glyph unicode="P" horiz-adv-x="778" d="M133 45v1344q0 18 13.5 31.5t31.5 13.5h275q96 0 164.5 -71t68.5 -169t-68.5 -169t-164.5 -71h-230v-909q0 -18 -13 -31.5t-32 -13.5q-18 0 -31.5 13.5t-13.5 31.5zM223 1044h230q59 0 101 44.5t42 105.5t-42 105t-101 44h-230v-299z" />
<glyph unicode="Q" d="M133 227v979q0 102 75 175t179 73t179 -72.5t75 -175.5v-979q0 -80 -49 -145l63 -64q11 -8 11 -26t-11 -27q-8 -10 -26 -10q-16 0 -27 10l-63 64q-70 -49 -152 -49q-104 0 -179 72.5t-75 174.5zM223 227q0 -66 48 -111.5t116 -45.5h4q47 0 84 24l-65 66q-10 14 -11 26 q0 16 11 27q10 10 26 10t25 -10l67 -68q23 39 23 82v979q0 66 -48 112t-116 46t-116 -46t-48 -112v-979z" />
<glyph unicode="R" horiz-adv-x="819" d="M133 45v1344q0 18 13.5 31.5t31.5 13.5h275q96 0 164.5 -71t68.5 -169q0 -59 -27.5 -109.5t-78.5 -83.5q51 -31 78.5 -79t27.5 -107v-770q0 -18 -13.5 -31.5t-31.5 -13.5t-31.5 13.5t-13.5 31.5v770q-2 59 -42 99t-101 40h-230v-909q0 -18 -13 -31.5t-32 -13.5 q-18 0 -31.5 13.5t-13.5 31.5zM223 1044h230q59 0 101 44.5t42 105.5t-42 105t-101 44h-230v-299z" />
<glyph unicode="S" horiz-adv-x="671" d="M72 238q0 18 13 31.5t32 13.5q18 0 31.5 -13.5t13.5 -31.5q0 -72 50 -120t124 -48q72 0 123 49t51 119v346q0 68 -51 128t-129 83q-115 35 -181.5 113.5t-66.5 172.5v125q0 102 74.5 175t179.5 73q106 0 180 -72.5t74 -175.5q0 -18 -13.5 -31.5t-31.5 -13.5t-31.5 13.5 t-13.5 31.5q0 66 -47 112t-117 46q-68 0 -116 -46t-48 -112v-125q0 -66 50 -121t134 -79q109 -35 176.5 -117t67.5 -180v-346q0 -70 -36 -129.5t-96 -94t-132 -34.5q-111 0 -187.5 74.5t-76.5 183.5z" />
<glyph unicode="T" horiz-adv-x="618" d="M51 1389q0 18 13.5 31.5t31.5 13.5h426q19 0 32 -13.5t13 -31.5t-13 -32t-32 -14h-168v-1298q0 -18 -13 -31.5t-32 -13.5q-18 0 -31.5 13.5t-13.5 31.5v1298h-168q-18 0 -31.5 13.5t-13.5 32.5z" />
<glyph unicode="U" horiz-adv-x="753" d="M133 238v1151q0 18 13.5 31.5t31.5 13.5t31.5 -13.5t13.5 -31.5v-1151q0 -76 42 -122t112 -46t111.5 46t41.5 122v1151q0 18 13.5 31.5t31.5 13.5t32 -13.5t14 -31.5v-1151q0 -117 -68 -187.5t-176 -70.5q-109 0 -176.5 70.5t-67.5 187.5z" />
<glyph unicode="V" horiz-adv-x="729" d="M113 449v940q0 18 13 31.5t32 13.5q18 0 31.5 -13.5t13.5 -31.5v-940l162 -310l161 310v940q0 18 13.5 31.5t31.5 13.5q19 0 32 -13.5t13 -31.5v-940q0 -23 -8 -37l-205 -389q-12 -23 -38 -23q-27 0 -39 23l-205 389q-8 14 -8 37z" />
<glyph unicode="W" horiz-adv-x="790" d="M133 45v1344q0 18 13.5 31.5t31.5 13.5t31.5 -13.5t13.5 -31.5v-1063l127 399q10 37 45 37t45 -37l127 -399v1063q0 18 13.5 31.5t31.5 13.5q19 0 32 -13.5t13 -31.5v-1344q0 -18 -13 -31.5t-32 -13.5q-14 0 -26.5 9t-16.5 24l-174 549l-174 -549q-4 -14 -16 -23.5 t-27 -9.5q-18 0 -31.5 13.5t-13.5 31.5z" />
<glyph unicode="X" horiz-adv-x="710" d="M72 43q0 10 2 16l233 678l-219 637q-2 6 -2 17q0 18 14.5 30.5t32.5 12.5q31 0 41 -31l182 -526l181 526q10 31 41 31q18 0 32.5 -12.5t14.5 -30.5q0 -10 -2 -17l-220 -637l234 -678q2 -6 2 -16q0 -18 -13.5 -30.5t-31.5 -12.5q-14 0 -26.5 8t-16.5 23l-195 567 l-196 -567q-4 -14 -16.5 -22.5t-26.5 -8.5q-18 0 -31.5 12.5t-13.5 30.5z" />
<glyph unicode="Y" horiz-adv-x="663" d="M63 1391q0 18 14.5 30.5t33.5 12.5q31 0 41 -31l182 -526l180 526q10 31 41 31q18 0 32.5 -12.5t14.5 -30.5q0 -10 -2 -17l-221 -641v-688q0 -18 -13.5 -31.5t-31.5 -13.5t-31.5 13.5t-13.5 31.5v688l-223 641q-2 6 -3 17z" />
<glyph unicode="Z" horiz-adv-x="698" d="M70 43q0 -18 13 -30.5t32 -12.5h467q18 0 31.5 13.5t13.5 31.5t-13.5 31.5t-31.5 13.5h-406l426 1284q2 6 2 17q0 18 -14.5 30.5t-32.5 12.5h-391q-19 0 -32 -13.5t-13 -31.5t13 -32t32 -14h332l-426 -1284q-2 -6 -2 -16z" />
<glyph unicode="[" horiz-adv-x="462" d="M133 -43v1520q0 18 13.5 32.5t31.5 14.5h219q18 0 31.5 -13.5t13.5 -31.5t-13 -31.5t-32 -13.5h-174v-1434h174q19 0 32 -13.5t13 -31.5t-13 -31.5t-32 -13.5h-219q-18 0 -31.5 14.5t-13.5 32.5z" />
<glyph unicode="\" horiz-adv-x="710" d="M102 1399l437 -1389q10 -31 41 -30q22 0 35.5 18t7.5 39l-439 1386q-8 31 -39 31q-20 0 -35.5 -16.5t-7.5 -38.5z" />
<glyph unicode="]" horiz-adv-x="462" d="M20 -45q0 18 13.5 31.5t32.5 13.5h174v1434h-174q-18 0 -32 13t-14 32q0 18 13.5 31.5t32.5 13.5h219q18 0 31.5 -14.5t13.5 -32.5v-1520q0 -18 -13.5 -32.5t-31.5 -14.5h-219q-18 0 -32 13.5t-14 31.5z" />
<glyph unicode="_" horiz-adv-x="999" d="M0 -61q0 -16 12.5 -28.5t28.5 -12.5h917q17 0 29 12t12 29q0 16 -12 28.5t-29 12.5h-917q-16 0 -28.5 -12.5t-12.5 -28.5z" />
<glyph unicode="a" horiz-adv-x="753" d="M133 45v1151q0 70 34 129t90 94t120 35q63 0 119.5 -35t90.5 -94t34 -129v-1151q0 -18 -13.5 -31.5t-32.5 -13.5q-18 0 -31.5 13.5t-13.5 31.5v627h-307v-627q0 -18 -13 -31.5t-32 -13.5q-18 0 -31.5 13.5t-13.5 31.5zM223 762h307v434q0 72 -44 120t-109 48 q-66 0 -110 -48t-44 -120v-434z" />
<glyph unicode="b" horiz-adv-x="825" d="M133 45v1341q0 18 13.5 33t31.5 15h148q94 0 161.5 -71t67.5 -169q0 -123 -98 -180q145 -53 231 -186.5t86 -309.5q0 -143 -56 -262t-151.5 -187.5t-208.5 -68.5h-182q-16 0 -29.5 13.5t-13.5 31.5zM223 90h135q91 0 165.5 56.5t117.5 154.5t43 217t-44 218.5t-119 157.5 t-163 58h-135v-862zM223 1042h103q57 0 98 45.5t41 106.5t-41 105t-98 44h-103v-301z" />
<glyph unicode="c" horiz-adv-x="743" d="M133 227v979q0 102 75 175t179 73q106 0 180 -72.5t74 -175.5q0 -18 -13.5 -31.5t-31.5 -13.5t-31.5 13.5t-13.5 31.5q0 66 -47 112t-117 46q-68 0 -116 -46t-48 -112v-979q0 -66 48 -111.5t116 -45.5q70 0 117 46t47 111q0 18 13.5 31.5t31.5 13.5t31.5 -13t13.5 -32 q0 -102 -73.5 -174.5t-180.5 -72.5q-104 0 -179 72.5t-75 174.5z" />
<glyph unicode="d" d="M133 45v1344q0 18 13.5 31.5t31.5 13.5h205q70 0 129 -34t94 -93.5t35 -130.5v-918q0 -72 -35 -131t-94 -93t-129 -34h-205q-18 0 -31.5 13.5t-13.5 31.5zM223 90h160q70 0 119 49t49 119v918q0 69 -49 118t-119 49h-160v-1253z" />
<glyph unicode="e" horiz-adv-x="602" d="M133 162v1110q0 68 48 115t116 47h147q18 0 31.5 -13.5t13.5 -31.5t-13 -32t-32 -14h-147q-29 0 -51.5 -21.5t-22.5 -49.5v-842h221q18 0 31.5 -13.5t13.5 -31.5t-13 -31.5t-32 -13.5h-221v-178q0 -29 22.5 -50.5t51.5 -21.5h147q18 0 31.5 -13.5t13.5 -31.5t-13 -31.5 t-32 -13.5h-147q-68 0 -116 47t-48 115z" />
<glyph unicode="f" horiz-adv-x="696" d="M133 45v1227q0 68 48 115t116 47h283q18 0 31.5 -13.5t13.5 -31.5t-13.5 -32t-31.5 -14h-283q-29 0 -51.5 -21.5t-22.5 -49.5v-490h260q18 0 31.5 -13t13.5 -32q0 -18 -13 -31.5t-32 -13.5h-260v-647q0 -18 -13 -31.5t-32 -13.5q-18 0 -31.5 13.5t-13.5 31.5z" />
<glyph unicode="g" d="M133 227v979q0 102 75 175t179 73q106 0 180 -72.5t74 -175.5q0 -18 -13.5 -31.5t-31.5 -13.5t-31.5 13.5t-13.5 31.5q0 66 -47 112t-117 46q-68 0 -116 -46t-48 -112v-979q0 -66 48 -111.5t116 -45.5q70 0 117 46t47 111v445h-125q-18 0 -31.5 13t-13.5 32 q0 18 13.5 31.5t31.5 13.5h170q18 0 31.5 -13.5t13.5 -31.5v-490q0 -102 -73.5 -174.5t-180.5 -72.5q-104 0 -179 72.5t-75 174.5z" />
<glyph unicode="h" horiz-adv-x="753" d="M133 45v1344q0 18 13.5 31.5t31.5 13.5t31.5 -13.5t13.5 -31.5v-627h307v627q0 18 13.5 31.5t31.5 13.5t32 -13.5t14 -31.5v-1344q0 -18 -13.5 -31.5t-32.5 -13.5q-18 0 -31.5 13.5t-13.5 31.5v627h-307v-627q0 -18 -13 -31.5t-32 -13.5q-18 0 -31.5 13.5t-13.5 31.5z " />
<glyph unicode="i" horiz-adv-x="356" d="M133 45v1344q0 18 13.5 31.5t31.5 13.5t31.5 -13.5t13.5 -31.5v-1344q0 -18 -13 -31.5t-32 -13.5q-18 0 -31.5 13.5t-13.5 31.5z" />
<glyph unicode="j" horiz-adv-x="661" d="M20 227q0 18 13.5 31.5t32.5 13.5q18 0 31.5 -13t13.5 -32q0 -66 47 -111.5t116 -45.5q68 0 116 46t48 111v1162q0 18 13.5 31.5t31.5 13.5q19 0 32 -13.5t13 -31.5v-1162q0 -102 -74.5 -174.5t-179.5 -72.5q-106 0 -180 72.5t-74 174.5z" />
<glyph unicode="k" horiz-adv-x="749" d="M133 45v1344q0 18 13.5 31.5t31.5 13.5t31.5 -13.5t13.5 -31.5v-529h144q35 0 60.5 26.5t25.5 63.5v246q0 18 13 31.5t32 13.5q18 0 31.5 -13.5t13.5 -31.5v-246q0 -59 -45 -106q69 -8 109 -54.5t40 -111.5v-633q0 -18 -13 -31.5t-32 -13.5q-18 0 -31.5 13.5t-13.5 31.5 v633q0 39 -26.5 65.5t-65.5 26.5h-242v-725q0 -18 -13 -31.5t-32 -13.5q-18 0 -31.5 13.5t-13.5 31.5z" />
<glyph unicode="l" horiz-adv-x="632" d="M133 162v1227q0 18 13.5 31.5t31.5 13.5t31.5 -13.5t13.5 -31.5v-1227q0 -29 22.5 -50.5t51.5 -21.5h250q18 0 31.5 -13.5t13.5 -31.5t-13.5 -31.5t-31.5 -13.5h-250q-68 0 -116 47t-48 115z" />
<glyph unicode="m" horiz-adv-x="790" d="M133 45v1344q0 18 13.5 31.5t31.5 13.5q14 0 26.5 -9.5t16.5 -23.5l174 -549l174 549q4 14 16.5 23.5t26.5 9.5q18 0 31.5 -13.5t13.5 -31.5v-1344q0 -18 -13 -31.5t-32 -13.5q-18 0 -31.5 13.5t-13.5 31.5v1063l-127 -399q-10 -37 -45 -37t-45 37l-127 399v-1063 q0 -18 -13 -31.5t-32 -13.5q-18 0 -31.5 13.5t-13.5 31.5z" />
<glyph unicode="n" d="M133 45v1344q0 18 13.5 31.5t31.5 13.5q14 0 26.5 -8.5t16.5 -22.5l330 -1063v1049q0 18 13.5 31.5t31.5 13.5t31.5 -13.5t13.5 -31.5v-1344q0 -18 -13.5 -31.5t-31.5 -13.5q-14 0 -26.5 8t-16.5 23l-330 1063v-1049q0 -18 -13 -31.5t-32 -13.5q-18 0 -31.5 13.5 t-13.5 31.5z" />
<glyph unicode="o" d="M133 227q0 -102 75 -174.5t179 -72.5q105 0 179.5 72.5t74.5 174.5v979q0 102 -74.5 175t-179.5 73q-104 0 -179 -72.5t-75 -175.5v-979zM223 227v979q0 66 48 112t116 46t116 -46t48 -112v-979q0 -66 -48 -111.5t-116 -45.5t-116 46t-48 111z" />
<glyph unicode="p" horiz-adv-x="778" d="M133 45v1344q0 18 13.5 31.5t31.5 13.5h275q96 0 164.5 -71t68.5 -169t-68.5 -169t-164.5 -71h-230v-909q0 -18 -13 -31.5t-32 -13.5q-18 0 -31.5 13.5t-13.5 31.5zM223 1044h230q59 0 101 44.5t42 105.5t-42 105t-101 44h-230v-299z" />
<glyph unicode="q" d="M133 227v979q0 102 75 175t179 73t179 -72.5t75 -175.5v-979q0 -80 -49 -145l63 -64q11 -8 11 -26t-11 -27q-8 -10 -26 -10q-16 0 -27 10l-63 64q-70 -49 -152 -49q-104 0 -179 72.5t-75 174.5zM223 227q0 -66 48 -111.5t116 -45.5h4q47 0 84 24l-65 66q-10 14 -11 26 q0 16 11 27q10 10 26 10t25 -10l67 -68q23 39 23 82v979q0 66 -48 112t-116 46t-116 -46t-48 -112v-979z" />
<glyph unicode="r" horiz-adv-x="819" d="M133 45v1344q0 18 13.5 31.5t31.5 13.5h275q96 0 164.5 -71t68.5 -169q0 -59 -27.5 -109.5t-78.5 -83.5q51 -31 78.5 -79t27.5 -107v-770q0 -18 -13.5 -31.5t-31.5 -13.5t-31.5 13.5t-13.5 31.5v770q-2 59 -42 99t-101 40h-230v-909q0 -18 -13 -31.5t-32 -13.5 q-18 0 -31.5 13.5t-13.5 31.5zM223 1044h230q59 0 101 44.5t42 105.5t-42 105t-101 44h-230v-299z" />
<glyph unicode="s" horiz-adv-x="671" d="M72 238q0 18 13 31.5t32 13.5q18 0 31.5 -13.5t13.5 -31.5q0 -72 50 -120t124 -48q72 0 123 49t51 119v346q0 68 -51 128t-129 83q-115 35 -181.5 113.5t-66.5 172.5v125q0 102 74.5 175t179.5 73q106 0 180 -72.5t74 -175.5q0 -18 -13.5 -31.5t-31.5 -13.5t-31.5 13.5 t-13.5 31.5q0 66 -47 112t-117 46q-68 0 -116 -46t-48 -112v-125q0 -66 50 -121t134 -79q109 -35 176.5 -117t67.5 -180v-346q0 -70 -36 -129.5t-96 -94t-132 -34.5q-111 0 -187.5 74.5t-76.5 183.5z" />
<glyph unicode="t" horiz-adv-x="618" d="M51 1389q0 18 13.5 31.5t31.5 13.5h426q19 0 32 -13.5t13 -31.5t-13 -32t-32 -14h-168v-1298q0 -18 -13 -31.5t-32 -13.5q-18 0 -31.5 13.5t-13.5 31.5v1298h-168q-18 0 -31.5 13.5t-13.5 32.5z" />
<glyph unicode="u" horiz-adv-x="753" d="M133 238v1151q0 18 13.5 31.5t31.5 13.5t31.5 -13.5t13.5 -31.5v-1151q0 -76 42 -122t112 -46t111.5 46t41.5 122v1151q0 18 13.5 31.5t31.5 13.5t32 -13.5t14 -31.5v-1151q0 -117 -68 -187.5t-176 -70.5q-109 0 -176.5 70.5t-67.5 187.5z" />
<glyph unicode="v" horiz-adv-x="729" d="M113 449v940q0 18 13 31.5t32 13.5q18 0 31.5 -13.5t13.5 -31.5v-940l162 -310l161 310v940q0 18 13.5 31.5t31.5 13.5q19 0 32 -13.5t13 -31.5v-940q0 -23 -8 -37l-205 -389q-12 -23 -38 -23q-27 0 -39 23l-205 389q-8 14 -8 37z" />
<glyph unicode="w" horiz-adv-x="790" d="M133 45v1344q0 18 13.5 31.5t31.5 13.5t31.5 -13.5t13.5 -31.5v-1063l127 399q10 37 45 37t45 -37l127 -399v1063q0 18 13.5 31.5t31.5 13.5q19 0 32 -13.5t13 -31.5v-1344q0 -18 -13 -31.5t-32 -13.5q-14 0 -26.5 9t-16.5 24l-174 549l-174 -549q-4 -14 -16 -23.5 t-27 -9.5q-18 0 -31.5 13.5t-13.5 31.5z" />
<glyph unicode="x" horiz-adv-x="710" d="M72 43q0 10 2 16l233 678l-219 637q-2 6 -2 17q0 18 14.5 30.5t32.5 12.5q31 0 41 -31l182 -526l181 526q10 31 41 31q18 0 32.5 -12.5t14.5 -30.5q0 -10 -2 -17l-220 -637l234 -678q2 -6 2 -16q0 -18 -13.5 -30.5t-31.5 -12.5q-14 0 -26.5 8t-16.5 23l-195 567 l-196 -567q-4 -14 -16.5 -22.5t-26.5 -8.5q-18 0 -31.5 12.5t-13.5 30.5z" />
<glyph unicode="y" horiz-adv-x="663" d="M63 1391q0 18 14.5 30.5t33.5 12.5q31 0 41 -31l182 -526l180 526q10 31 41 31q18 0 32.5 -12.5t14.5 -30.5q0 -10 -2 -17l-221 -641v-688q0 -18 -13.5 -31.5t-31.5 -13.5t-31.5 13.5t-13.5 31.5v688l-223 641q-2 6 -3 17z" />
<glyph unicode="z" horiz-adv-x="698" d="M70 43q0 -18 13 -30.5t32 -12.5h467q18 0 31.5 13.5t13.5 31.5t-13.5 31.5t-31.5 13.5h-406l426 1284q2 6 2 17q0 18 -14.5 30.5t-32.5 12.5h-391q-19 0 -32 -13.5t-13 -31.5t13 -32t32 -14h332l-426 -1284q-2 -6 -2 -16z" />
<glyph unicode="{" horiz-adv-x="548" d="M20 717q0 18 13.5 31.5t32.5 13.5q68 0 115.5 46t47.5 112v356q0 102 75 175t179 73q18 0 31.5 -13.5t13.5 -31.5t-13 -31.5t-32 -13.5q-68 0 -116 -46.5t-48 -111.5v-356q0 -66 -34.5 -118t-106.5 -85q72 -33 106.5 -85t34.5 -118v-356q0 -66 48.5 -112t115.5 -46 q19 0 32 -13.5t13 -31.5t-13 -31.5t-32 -13.5q-104 0 -179 72.5t-75 175.5v356q0 66 -48 112t-115 46q-18 0 -32 13t-14 32z" />
<glyph unicode="}" horiz-adv-x="548" d="M20 -45q0 18 13.5 31.5t32.5 13.5q67 0 115 46t48 112v356q0 66 35 118t107 85q-72 33 -107 85t-35 118v356q0 66 -48 112t-115 46q-18 0 -32 13t-14 32q0 18 13.5 31.5t32.5 13.5q104 0 178.5 -73t74.5 -175v-356q0 -66 48.5 -112t115.5 -46q18 0 31.5 -13.5t13.5 -31.5 t-13 -31.5t-32 -13.5q-68 0 -116 -46t-48 -112v-356q0 -102 -74.5 -175t-178.5 -73q-18 0 -32 13.5t-14 31.5z" />
<glyph unicode="&#xa2;" horiz-adv-x="702" d="M102 293v549q0 94 63.5 163.5t158.5 81.5v97q0 18 11 27.5t25 9.5t25.5 -9.5t11.5 -27.5v-99q92 -14 152.5 -82.5t60.5 -160.5q0 -18 -13 -31.5t-32 -13.5q-18 0 -31.5 13t-13.5 32q0 55 -34.5 97t-88.5 56v-856q53 14 88 56.5t35 97.5q0 18 13.5 31.5t31.5 13.5 q19 0 32 -13.5t13 -31.5q0 -92 -60.5 -161t-152.5 -83v-98q0 -18 -11 -27.5t-26 -9.5q-14 0 -25 9t-11 28v96q-94 12 -158 82t-64 164zM193 293q0 -57 36.5 -100t94.5 -54v856q-57 -10 -94 -53t-37 -100v-549z" />
<glyph unicode="&#xa3;" horiz-adv-x="671" d="M0 774q0 16 11.5 26.5t25.5 10.5h76q-31 188 -31 334q0 139 69.5 224t184.5 85t184.5 -67.5t69.5 -180.5q0 -18 -13.5 -31.5t-31.5 -13.5t-31.5 13.5t-13.5 31.5q0 72 -45 115t-119 43t-119 -60.5t-45 -158.5q0 -145 31 -334h194q16 0 26.5 -10t10.5 -27q0 -14 -10 -25.5 t-27 -11.5h-180l12 -63q18 -92 26.5 -152.5t8.5 -120.5q0 -156 -82 -311h373q18 0 31.5 -13.5t13.5 -31.5t-13.5 -31.5t-31.5 -13.5h-440q-18 0 -31.5 13.5t-13.5 31.5t14 33l29 55q61 121 61 268q0 59 -8 120t-27 153l-12 63h-90q-14 0 -25.5 11.5t-11.5 25.5z" />
<glyph unicode="&#xa5;" horiz-adv-x="663" d="M63 1391q0 18 14.5 30.5t33.5 12.5q31 0 41 -31l182 -526l180 526q10 31 41 31q18 0 32.5 -12.5t14.5 -30.5q0 -10 -2 -17l-201 -579h160q16 0 26.5 -10.5t10.5 -26.5q0 -14 -10.5 -25.5t-26.5 -11.5h-180v-111h180q16 0 26.5 -10t10.5 -27q0 -14 -10.5 -25t-26.5 -11 h-180v-492q0 -18 -13.5 -31.5t-31.5 -13.5t-31.5 13.5t-13.5 31.5v492h-185q-14 0 -25 11t-11 25q0 16 11 26.5t25 10.5h185v111h-185q-14 0 -25 11t-11 26q0 16 11 26.5t25 10.5h164l-202 579q-2 6 -3 17z" />
<glyph unicode="&#xad;" horiz-adv-x="579" d="M0 512q0 18 13.5 31.5t31.5 13.5h490q18 0 31.5 -13.5t13.5 -31.5t-13.5 -31.5t-31.5 -13.5h-490q-18 0 -31.5 13.5t-13.5 31.5z" />
<glyph unicode="&#xb7;" horiz-adv-x="241" d="M51 719q0 29 20.5 48t49.5 19t49 -19t20 -48t-20 -49.5t-49 -20.5t-49.5 20.5t-20.5 49.5z" />
<glyph unicode="&#xc0;" horiz-adv-x="753" d="M133 45v1151q0 70 34 129t90 94t120 35q63 0 119.5 -35t90.5 -94t34 -129v-1151q0 -18 -13.5 -31.5t-32.5 -13.5q-18 0 -31.5 13.5t-13.5 31.5v627h-307v-627q0 -18 -13 -31.5t-32 -13.5q-18 0 -31.5 13.5t-13.5 31.5zM223 762h307v434q0 72 -44 120t-109 48 q-66 0 -110 -48t-44 -120v-434zM250 1704q0 18 13 31.5t32 13.5q10 0 27 -10l127 -111q14 -15 14 -31t-12.5 -28.5t-28.5 -12.5q-12 0 -27 11l-129 104q-16 14 -16 33z" />
<glyph unicode="&#xc1;" horiz-adv-x="753" d="M133 45v1151q0 70 34 129t90 94t120 35q63 0 119.5 -35t90.5 -94t34 -129v-1151q0 -18 -13.5 -31.5t-32.5 -13.5q-18 0 -31.5 13.5t-13.5 31.5v627h-307v-627q0 -18 -13 -31.5t-32 -13.5q-18 0 -31.5 13.5t-13.5 31.5zM223 762h307v434q0 72 -44 120t-109 48 q-66 0 -110 -48t-44 -120v-434zM295 1597q0 16 14 31l127 111q17 10 27 10q18 0 31.5 -13.5t13.5 -31.5t-16 -33l-130 -104q-14 -10 -26 -11q-16 0 -28.5 12.5t-12.5 28.5z" />
<glyph unicode="&#xc2;" horiz-adv-x="753" d="M133 45v1151q0 70 34 129t90 94t120 35q63 0 119.5 -35t90.5 -94t34 -129v-1151q0 -18 -13.5 -31.5t-32.5 -13.5q-18 0 -31.5 13.5t-13.5 31.5v627h-307v-627q0 -18 -13 -31.5t-32 -13.5q-18 0 -31.5 13.5t-13.5 31.5zM203 1602q0 23 16 34l129 105q14 10 27 10 q14 0 28 -10l129 -105q16 -12 17 -34q0 -12 -10 -27q-17 -16 -35 -16q-12 0 -27 10l-100 90l-103 -90q-14 -10 -26 -10q-18 0 -35 16q-10 14 -10 27zM223 762h307v434q0 72 -44 120t-109 48q-66 0 -110 -48t-44 -120v-434z" />
<glyph unicode="&#xc3;" horiz-adv-x="753" d="M133 45v1151q0 70 34 129t90 94t120 35q63 0 119.5 -35t90.5 -94t34 -129v-1151q0 -18 -13.5 -31.5t-32.5 -13.5q-18 0 -31.5 13.5t-13.5 31.5v627h-307v-627q0 -18 -13 -31.5t-32 -13.5q-18 0 -31.5 13.5t-13.5 31.5zM190 1606q0 59 33 97t86 38q33 0 54.5 -15.5 t44.5 -42.5q14 -18 23 -26t22 -8q12 0 20 14t8 37q0 16 12.5 28.5t28.5 12.5q17 0 29 -12.5t12 -28.5q0 -59 -32.5 -97t-86.5 -38q-33 0 -53 15t-41 42q-27 35 -47 35q-14 0 -22.5 -14.5t-8.5 -36.5q0 -16 -12 -28.5t-29 -12.5q-16 0 -28.5 12t-12.5 29zM223 762h307v434 q0 72 -44 120t-109 48q-66 0 -110 -48t-44 -120v-434z" />
<glyph unicode="&#xc4;" horiz-adv-x="753" d="M133 45v1151q0 70 34 129t90 94t120 35q63 0 119.5 -35t90.5 -94t34 -129v-1151q0 -18 -13.5 -31.5t-32.5 -13.5q-18 0 -31.5 13.5t-13.5 31.5v627h-307v-627q0 -18 -13 -31.5t-32 -13.5q-18 0 -31.5 13.5t-13.5 31.5zM205 1651q0 29 20.5 49t48.5 20q29 0 49.5 -20.5 t20.5 -48.5q0 -29 -20.5 -49.5t-49.5 -20.5q-28 0 -48.5 20.5t-20.5 49.5zM223 762h307v434q0 72 -44 120t-109 48q-66 0 -110 -48t-44 -120v-434zM410 1651q0 29 20.5 49t48.5 20q29 0 49.5 -20.5t20.5 -48.5q0 -29 -20.5 -49.5t-49.5 -20.5q-28 0 -48.5 20.5t-20.5 49.5z " />
<glyph unicode="&#xc5;" horiz-adv-x="753" d="M133 45v1151q0 70 34 129t90 94t120 35q63 0 119.5 -35t90.5 -94t34 -129v-1151q0 -18 -13.5 -31.5t-32.5 -13.5q-18 0 -31.5 13.5t-13.5 31.5v627h-307v-627q0 -18 -13 -31.5t-32 -13.5q-18 0 -31.5 13.5t-13.5 31.5zM223 762h307v434q0 72 -44 120t-109 48 q-66 0 -110 -48t-44 -120v-434zM256 1655q0 51 35 85t86 34t85 -34t34 -85t-34 -86t-85 -35t-86 35t-35 86zM319 1655q0 -25 16.5 -41.5t41.5 -16.5q22 0 38.5 16.5t16.5 41.5q0 23 -16.5 39t-38.5 16q-25 0 -41.5 -16.5t-16.5 -38.5z" />
<glyph unicode="&#xc6;" horiz-adv-x="999" d="M133 45v1151q0 70 34 129t90 94t120 35q66 0 119 -38t86 -101q35 57 85 88t107 31h68q18 0 31.5 -13.5t13.5 -31.5t-13.5 -32t-31.5 -14h-68q-66 0 -109.5 -48t-43.5 -119v-746h221q18 0 31.5 -13.5t13.5 -31.5t-13.5 -31.5t-31.5 -13.5h-221v-178q0 -29 22.5 -50.5 t50.5 -21.5h148q18 0 31.5 -13.5t13.5 -31.5t-13.5 -31.5t-31.5 -13.5h-148q-68 0 -116 47t-48 115v510h-307v-627q0 -18 -13 -31.5t-32 -13.5q-18 0 -31.5 13.5t-13.5 31.5zM223 762h307v434q0 72 -44 120t-109 48q-66 0 -110 -48t-44 -120v-434z" />
<glyph unicode="&#xc7;" horiz-adv-x="743" d="M133 227v979q0 102 75 175t179 73q106 0 180 -72.5t74 -175.5q0 -18 -13.5 -31.5t-31.5 -13.5t-31.5 13.5t-13.5 31.5q0 66 -47 112t-117 46q-68 0 -116 -46t-48 -112v-979q0 -66 48 -111.5t116 -45.5q70 0 117 46t47 111q0 18 13.5 31.5t31.5 13.5t31.5 -13t13.5 -32 q0 -94 -62.5 -163.5t-156.5 -81.5l-33 -88q53 2 90 -36t37 -102q0 -72 -42 -114.5t-112 -42.5q-47 0 -88 27.5t-41 60.5q0 16 12.5 28.5t28.5 12.5q20 0 33 -17q25 -31 55 -30q33 0 52.5 20t19.5 55q0 68 -53 68q-14 0 -25.5 -2t-19.5 -2q-14 0 -23.5 9t-9.5 26q0 6 4 22 l39 107q-92 14 -152.5 82.5t-60.5 160.5z" />
<glyph unicode="&#xc8;" horiz-adv-x="602" d="M133 162v1110q0 68 48 115t116 47h147q18 0 31.5 -13.5t13.5 -31.5t-13 -32t-32 -14h-147q-29 0 -51.5 -21.5t-22.5 -49.5v-842h221q18 0 31.5 -13.5t13.5 -31.5t-13 -31.5t-32 -13.5h-221v-178q0 -29 22.5 -50.5t51.5 -21.5h147q18 0 31.5 -13.5t13.5 -31.5t-13 -31.5 t-32 -13.5h-147q-68 0 -116 47t-48 115zM197 1683q0 18 13 32t32 14q10 0 26 -11l127 -110q14 -14 15 -31q0 -16 -12.5 -28.5t-28.5 -12.5q-12 0 -27 10l-129 105q-16 14 -16 32z" />
<glyph unicode="&#xc9;" horiz-adv-x="602" d="M133 162v1110q0 68 48 115t116 47h147q18 0 31.5 -13.5t13.5 -31.5t-13 -32t-32 -14h-147q-29 0 -51.5 -21.5t-22.5 -49.5v-842h221q18 0 31.5 -13.5t13.5 -31.5t-13 -31.5t-32 -13.5h-221v-178q0 -29 22.5 -50.5t51.5 -21.5h147q18 0 31.5 -13.5t13.5 -31.5t-13 -31.5 t-32 -13.5h-147q-68 0 -116 47t-48 115zM242 1577q0 16 14 31l127 110q16 10 27 11q18 0 31.5 -13.5t13.5 -32.5q0 -18 -17 -32l-129 -105q-14 -10 -26 -10q-17 0 -29 12.5t-12 28.5z" />
<glyph unicode="&#xca;" horiz-adv-x="602" d="M133 162v1110q0 68 48 115t116 47h147q18 0 31.5 -13.5t13.5 -31.5t-13 -32t-32 -14h-147q-29 0 -51.5 -21.5t-22.5 -49.5v-842h221q18 0 31.5 -13.5t13.5 -31.5t-13 -31.5t-32 -13.5h-221v-178q0 -29 22.5 -50.5t51.5 -21.5h147q18 0 31.5 -13.5t13.5 -31.5t-13 -31.5 t-32 -13.5h-147q-68 0 -116 47t-48 115zM150 1581q0 23 16 35l129 104q14 10 27 11q14 0 28 -11l129 -104q16 -12 17 -35q0 -12 -11 -27q-16 -16 -34 -16q-12 0 -27 10l-100 90l-103 -90q-14 -10 -26 -10q-18 0 -35 16q-10 14 -10 27z" />
<glyph unicode="&#xcb;" horiz-adv-x="602" d="M133 162v1110q0 68 48 115t116 47h147q18 0 31.5 -13.5t13.5 -31.5t-13 -32t-32 -14h-147q-29 0 -51.5 -21.5t-22.5 -49.5v-842h221q18 0 31.5 -13.5t13.5 -31.5t-13 -31.5t-32 -13.5h-221v-178q0 -29 22.5 -50.5t51.5 -21.5h147q18 0 31.5 -13.5t13.5 -31.5t-13 -31.5 t-32 -13.5h-147q-68 0 -116 47t-48 115zM152 1630q0 29 20.5 49.5t48.5 20.5q29 0 49.5 -20.5t20.5 -49.5t-20.5 -49t-49.5 -20q-28 0 -48.5 20.5t-20.5 48.5zM356 1630q0 29 20.5 49.5t49.5 20.5t49.5 -20.5t20.5 -49.5t-20.5 -49t-49.5 -20t-49.5 20.5t-20.5 48.5z" />
<glyph unicode="&#xcc;" horiz-adv-x="356" d="M51 1683q0 18 13.5 32t31.5 14q10 0 27 -11l127 -110q14 -15 14 -31t-12 -28.5t-29 -12.5q-12 0 -26 10l-129 105q-16 14 -17 32zM133 45v1344q0 18 13.5 31.5t31.5 13.5t31.5 -13.5t13.5 -31.5v-1344q0 -18 -13 -31.5t-32 -13.5q-18 0 -31.5 13.5t-13.5 31.5z" />
<glyph unicode="&#xcd;" horiz-adv-x="356" d="M96 1577q0 16 15 31l127 110q16 11 26 11q18 0 31.5 -13.5t13.5 -32.5q0 -18 -16 -32l-129 -105q-14 -10 -27 -10q-16 0 -28.5 12.5t-12.5 28.5zM133 45v1344q0 18 13.5 31.5t31.5 13.5t31.5 -13.5t13.5 -31.5v-1344q0 -18 -13 -31.5t-32 -13.5q-18 0 -31.5 13.5 t-13.5 31.5z" />
<glyph unicode="&#xce;" horiz-adv-x="356" d="M4 1581q0 23 16 35l130 104q14 10 26 11q14 0 29 -11l129 -104q16 -12 16 -35q0 -12 -10 -27q-17 -16 -35 -16q-12 0 -26 10l-101 90l-102 -90q-14 -10 -27 -10q-18 0 -35 16q-10 14 -10 27zM133 45v1344q0 18 13.5 31.5t31.5 13.5t31.5 -13.5t13.5 -31.5v-1344 q0 -18 -13 -31.5t-32 -13.5q-18 0 -31.5 13.5t-13.5 31.5z" />
<glyph unicode="&#xcf;" horiz-adv-x="356" d="M6 1630q0 29 20.5 49.5t49.5 20.5t49 -20.5t20 -49.5t-20.5 -49t-48.5 -20q-29 0 -49.5 20.5t-20.5 48.5zM133 45v1344q0 18 13.5 31.5t31.5 13.5t31.5 -13.5t13.5 -31.5v-1344q0 -18 -13 -31.5t-32 -13.5q-18 0 -31.5 13.5t-13.5 31.5zM211 1630q0 29 20.5 49.5 t49.5 20.5t49 -20.5t20 -49.5t-20.5 -49t-48.5 -20q-29 0 -49.5 20.5t-20.5 48.5z" />
<glyph unicode="&#xd0;" horiz-adv-x="772" d="M0 717q0 16 11.5 26.5t25.5 10.5h96v635q0 18 13.5 31.5t31.5 13.5h203q70 0 129 -34t94 -93.5t35 -130.5v-918q0 -72 -35 -131t-94 -93t-129 -34h-203q-18 0 -31.5 13.5t-13.5 31.5v635h-96q-14 0 -25.5 11t-11.5 26zM223 90h158q70 0 119 49t49 119v918q0 69 -49 118 t-119 49h-158v-589h154q16 0 26.5 -10.5t10.5 -26.5q0 -14 -10.5 -25.5t-26.5 -11.5h-154v-590z" />
<glyph unicode="&#xd1;" d="M133 45v1344q0 18 13.5 31.5t31.5 13.5q14 0 26.5 -8.5t16.5 -22.5l330 -1063v1049q0 18 13.5 31.5t31.5 13.5t31.5 -13.5t13.5 -31.5v-1344q0 -18 -13.5 -31.5t-31.5 -13.5q-14 0 -26.5 8t-16.5 23l-330 1063v-1049q0 -18 -13 -31.5t-32 -13.5q-18 0 -31.5 13.5 t-13.5 31.5zM199 1585q0 59 32.5 97t85.5 38q33 0 54.5 -15t44.5 -42q14 -18 23.5 -26.5t21.5 -8.5t20 14.5t8 36.5q0 16 12.5 28.5t28.5 12.5q17 0 29 -12t12 -29q0 -59 -32.5 -97t-85.5 -38q-33 0 -53.5 15.5t-41.5 42.5q-27 35 -47 34q-14 0 -22 -14t-8 -37 q0 -16 -12.5 -28.5t-28.5 -12.5t-28.5 12.5t-12.5 28.5z" />
<glyph unicode="&#xd2;" d="M133 227q0 -102 75 -174.5t179 -72.5q105 0 179.5 72.5t74.5 174.5v979q0 102 -74.5 175t-179.5 73q-104 0 -179 -72.5t-75 -175.5v-979zM223 227v979q0 66 48 112t116 46t116 -46t48 -112v-979q0 -66 -48 -111.5t-116 -45.5t-116 46t-48 111zM260 1704q0 18 13.5 31.5 t31.5 13.5q10 0 27 -10l127 -111q14 -15 14 -31t-12 -28.5t-29 -12.5q-12 0 -26 11l-130 104q-16 14 -16 33z" />
<glyph unicode="&#xd3;" d="M133 227q0 -102 75 -174.5t179 -72.5q105 0 179.5 72.5t74.5 174.5v979q0 102 -74.5 175t-179.5 73q-104 0 -179 -72.5t-75 -175.5v-979zM223 227v979q0 66 48 112t116 46t116 -46t48 -112v-979q0 -66 -48 -111.5t-116 -45.5t-116 46t-48 111zM305 1597q0 16 14 31 l127 111q17 10 27 10q18 0 31.5 -13.5t13.5 -31.5t-16 -33l-129 -104q-14 -10 -27 -11q-16 0 -28.5 12.5t-12.5 28.5z" />
<glyph unicode="&#xd4;" d="M133 227q0 -102 75 -174.5t179 -72.5q105 0 179.5 72.5t74.5 174.5v979q0 102 -74.5 175t-179.5 73q-104 0 -179 -72.5t-75 -175.5v-979zM213 1602q0 23 16 34l129 105q14 10 27 10q14 0 29 -10l129 -105q16 -12 16 -34q0 -12 -10 -27q-17 -16 -35 -16q-12 0 -27 10 l-100 90l-102 -90q-14 -10 -27 -10q-18 0 -35 16q-10 14 -10 27zM223 227v979q0 66 48 112t116 46t116 -46t48 -112v-979q0 -66 -48 -111.5t-116 -45.5t-116 46t-48 111z" />
<glyph unicode="&#xd5;" d="M133 227q0 -102 75 -174.5t179 -72.5q105 0 179.5 72.5t74.5 174.5v979q0 102 -74.5 175t-179.5 73q-104 0 -179 -72.5t-75 -175.5v-979zM201 1606q0 59 32.5 97t85.5 38q33 0 54.5 -15.5t44.5 -42.5q14 -18 23.5 -26t21.5 -8t20.5 14t8.5 37q0 16 12 28.5t28 12.5 q17 0 29 -12.5t12 -28.5q0 -59 -32.5 -97t-85.5 -38q-33 0 -53.5 15t-41.5 42q-27 35 -47 35q-14 0 -22 -14.5t-8 -36.5q0 -16 -12.5 -28.5t-28.5 -12.5t-28.5 12t-12.5 29zM223 227v979q0 66 48 112t116 46t116 -46t48 -112v-979q0 -66 -48 -111.5t-116 -45.5t-116 46 t-48 111z" />
<glyph unicode="&#xd6;" d="M133 227q0 -102 75 -174.5t179 -72.5q105 0 179.5 72.5t74.5 174.5v979q0 102 -74.5 175t-179.5 73q-104 0 -179 -72.5t-75 -175.5v-979zM215 1651q0 29 20.5 49t49.5 20t49 -20.5t20 -48.5q0 -29 -20.5 -49.5t-48.5 -20.5q-29 0 -49.5 20.5t-20.5 49.5zM223 227v979 q0 66 48 112t116 46t116 -46t48 -112v-979q0 -66 -48 -111.5t-116 -45.5t-116 46t-48 111zM420 1651q0 29 20.5 49t48.5 20q29 0 49.5 -20.5t20.5 -48.5q0 -29 -20.5 -49.5t-49.5 -20.5q-28 0 -48.5 20.5t-20.5 49.5z" />
<glyph unicode="&#xd7;" horiz-adv-x="706" d="M82 332q0 18 12 30l195 193l-191 190q-14 14 -14 31q0 18 14 33q12 12 31 12q20 0 33 -12l190 -191l193 193q12 14 30 14q20 0 33 -14q12 -12 13 -31q0 -16 -13 -32l-192 -193l194 -195q15 -12 15 -32q0 -18 -15 -31q-14 -14 -30 -14q-14 0 -33 14l-195 195l-192 -193 q-12 -12 -33 -12q-16 0 -33 12q-12 12 -12 33z" />
<glyph unicode="&#xd8;" d="M133 227v979q0 102 75 175t179 73q45 0 90 -16l17 96q2 14 15 23.5t26 7.5q16 -4 25 -16.5t5 -28.5l-20 -119q45 -35 70.5 -86t25.5 -109v-979q0 -102 -74.5 -174.5t-179.5 -72.5q-47 0 -84 14l-16 -94q-4 -14 -17.5 -24.5t-27.5 -8.5q-37 14 -31 45l20 119 q-45 35 -71.5 86t-26.5 110zM223 227q0 -67 25 -104l215 1233q-27 8 -76 8q-68 0 -116 -46t-48 -112v-979zM317 78q27 -8 70 -8q68 0 116 46t48 111v979q0 68 -23 101z" />
<glyph unicode="&#xd9;" horiz-adv-x="753" d="M133 238v1151q0 18 13.5 31.5t31.5 13.5t31.5 -13.5t13.5 -31.5v-1151q0 -76 42 -122t112 -46t111.5 46t41.5 122v1151q0 18 13.5 31.5t31.5 13.5t32 -13.5t14 -31.5v-1151q0 -117 -68 -187.5t-176 -70.5q-109 0 -176.5 70.5t-67.5 187.5zM250 1683q0 18 13 32t32 14 q10 0 27 -11l127 -110q14 -15 14 -31t-12.5 -28.5t-28.5 -12.5q-12 0 -27 10l-129 105q-16 14 -16 32z" />
<glyph unicode="&#xda;" horiz-adv-x="753" d="M133 238v1151q0 18 13.5 31.5t31.5 13.5t31.5 -13.5t13.5 -31.5v-1151q0 -76 42 -122t112 -46t111.5 46t41.5 122v1151q0 18 13.5 31.5t31.5 13.5t32 -13.5t14 -31.5v-1151q0 -117 -68 -187.5t-176 -70.5q-109 0 -176.5 70.5t-67.5 187.5zM295 1577q0 16 14 31l127 110 q17 11 27 11q18 0 31.5 -13.5t13.5 -32.5q0 -18 -16 -32l-130 -105q-14 -10 -26 -10q-16 0 -28.5 12.5t-12.5 28.5z" />
<glyph unicode="&#xdb;" horiz-adv-x="753" d="M133 238v1151q0 18 13.5 31.5t31.5 13.5t31.5 -13.5t13.5 -31.5v-1151q0 -76 42 -122t112 -46t111.5 46t41.5 122v1151q0 18 13.5 31.5t31.5 13.5t32 -13.5t14 -31.5v-1151q0 -117 -68 -187.5t-176 -70.5q-109 0 -176.5 70.5t-67.5 187.5zM203 1581q0 23 16 35l129 104 q14 10 27 11q14 0 28 -11l129 -104q16 -12 17 -35q0 -12 -10 -27q-17 -16 -35 -16q-12 0 -27 10l-100 90l-103 -90q-14 -10 -26 -10q-18 0 -35 16q-10 14 -10 27z" />
<glyph unicode="&#xdc;" horiz-adv-x="753" d="M133 238v1151q0 18 13.5 31.5t31.5 13.5t31.5 -13.5t13.5 -31.5v-1151q0 -76 42 -122t112 -46t111.5 46t41.5 122v1151q0 18 13.5 31.5t31.5 13.5t32 -13.5t14 -31.5v-1151q0 -117 -68 -187.5t-176 -70.5q-109 0 -176.5 70.5t-67.5 187.5zM205 1630q0 29 20.5 49.5 t48.5 20.5q29 0 49.5 -20.5t20.5 -49.5t-20.5 -49t-49.5 -20q-28 0 -48.5 20.5t-20.5 48.5zM410 1630q0 29 20.5 49.5t48.5 20.5q29 0 49.5 -20.5t20.5 -49.5t-20.5 -49t-49.5 -20q-28 0 -48.5 20.5t-20.5 48.5z" />
<glyph unicode="&#xdd;" horiz-adv-x="663" d="M63 1391q0 18 14.5 30.5t33.5 12.5q31 0 41 -31l182 -526l180 526q10 31 41 31q18 0 32.5 -12.5t14.5 -30.5q0 -10 -2 -17l-221 -641v-688q0 -18 -13.5 -31.5t-31.5 -13.5t-31.5 13.5t-13.5 31.5v688l-223 641q-2 6 -3 17zM252 1577q0 16 14 31l127 110q17 11 27 11 q18 0 31.5 -13.5t13.5 -32.5q0 -18 -16 -32l-130 -105q-14 -10 -26 -10q-16 0 -28.5 12.5t-12.5 28.5z" />
<glyph unicode="&#xde;" horiz-adv-x="778" d="M133 45v1344q0 18 13.5 31.5t31.5 13.5t31.5 -13.5t13.5 -31.5v-433h230q96 0 164.5 -70.5t68.5 -168.5t-68.5 -169t-164.5 -71h-230v-432q0 -18 -13 -31.5t-32 -13.5q-18 0 -31.5 13.5t-13.5 31.5zM223 567h230q59 0 101 44t42 106q0 61 -42 105t-101 44h-230v-299z" />
<glyph unicode="&#xdf;" horiz-adv-x="675" d="M82 45v1161q0 102 73.5 175t180.5 73q104 0 179 -72.5t75 -175.5v-207q0 -66 -41 -124t-107 -76q68 -21 113 -83.5t45 -131.5v-326q0 -70 -36 -129t-96 -94t-132 -35h-37q-18 0 -31.5 13.5t-13.5 31.5t13.5 31.5t31.5 13.5h37q72 0 123 49t51 119v326q0 76 -48 122 t-126 46h-37q-18 0 -31.5 13t-13.5 32q0 18 13.5 31.5t31.5 13.5h37q74 0 119 43t45 114v207q0 66 -48.5 112t-115.5 46q-70 0 -117 -46t-47 -112v-1161q0 -18 -13.5 -31.5t-31.5 -13.5t-31.5 13.5t-13.5 31.5z" />
<glyph unicode="&#xe0;" horiz-adv-x="753" d="M133 45v1151q0 70 34 129t90 94t120 35q63 0 119.5 -35t90.5 -94t34 -129v-1151q0 -18 -13.5 -31.5t-32.5 -13.5q-18 0 -31.5 13.5t-13.5 31.5v627h-307v-627q0 -18 -13 -31.5t-32 -13.5q-18 0 -31.5 13.5t-13.5 31.5zM223 762h307v434q0 72 -44 120t-109 48 q-66 0 -110 -48t-44 -120v-434zM250 1704q0 18 13 31.5t32 13.5q10 0 27 -10l127 -111q14 -15 14 -31t-12.5 -28.5t-28.5 -12.5q-12 0 -27 11l-129 104q-16 14 -16 33z" />
<glyph unicode="&#xe1;" horiz-adv-x="753" d="M133 45v1151q0 70 34 129t90 94t120 35q63 0 119.5 -35t90.5 -94t34 -129v-1151q0 -18 -13.5 -31.5t-32.5 -13.5q-18 0 -31.5 13.5t-13.5 31.5v627h-307v-627q0 -18 -13 -31.5t-32 -13.5q-18 0 -31.5 13.5t-13.5 31.5zM223 762h307v434q0 72 -44 120t-109 48 q-66 0 -110 -48t-44 -120v-434zM295 1597q0 16 14 31l127 111q17 10 27 10q18 0 31.5 -13.5t13.5 -31.5t-16 -33l-130 -104q-14 -10 -26 -11q-16 0 -28.5 12.5t-12.5 28.5z" />
<glyph unicode="&#xe2;" horiz-adv-x="753" d="M133 45v1151q0 70 34 129t90 94t120 35q63 0 119.5 -35t90.5 -94t34 -129v-1151q0 -18 -13.5 -31.5t-32.5 -13.5q-18 0 -31.5 13.5t-13.5 31.5v627h-307v-627q0 -18 -13 -31.5t-32 -13.5q-18 0 -31.5 13.5t-13.5 31.5zM203 1602q0 23 16 34l129 105q14 10 27 10 q14 0 28 -10l129 -105q16 -12 17 -34q0 -12 -10 -27q-17 -16 -35 -16q-12 0 -27 10l-100 90l-103 -90q-14 -10 -26 -10q-18 0 -35 16q-10 14 -10 27zM223 762h307v434q0 72 -44 120t-109 48q-66 0 -110 -48t-44 -120v-434z" />
<glyph unicode="&#xe3;" horiz-adv-x="753" d="M133 45v1151q0 70 34 129t90 94t120 35q63 0 119.5 -35t90.5 -94t34 -129v-1151q0 -18 -13.5 -31.5t-32.5 -13.5q-18 0 -31.5 13.5t-13.5 31.5v627h-307v-627q0 -18 -13 -31.5t-32 -13.5q-18 0 -31.5 13.5t-13.5 31.5zM190 1606q0 59 33 97t86 38q33 0 54.5 -15.5 t44.5 -42.5q14 -18 23 -26t22 -8q12 0 20 14t8 37q0 16 12.5 28.5t28.5 12.5q17 0 29 -12.5t12 -28.5q0 -59 -32.5 -97t-86.5 -38q-33 0 -53 15t-41 42q-27 35 -47 35q-14 0 -22.5 -14.5t-8.5 -36.5q0 -16 -12 -28.5t-29 -12.5q-16 0 -28.5 12t-12.5 29zM223 762h307v434 q0 72 -44 120t-109 48q-66 0 -110 -48t-44 -120v-434z" />
<glyph unicode="&#xe4;" horiz-adv-x="753" d="M133 45v1151q0 70 34 129t90 94t120 35q63 0 119.5 -35t90.5 -94t34 -129v-1151q0 -18 -13.5 -31.5t-32.5 -13.5q-18 0 -31.5 13.5t-13.5 31.5v627h-307v-627q0 -18 -13 -31.5t-32 -13.5q-18 0 -31.5 13.5t-13.5 31.5zM205 1651q0 29 20.5 49t48.5 20q29 0 49.5 -20.5 t20.5 -48.5q0 -29 -20.5 -49.5t-49.5 -20.5q-28 0 -48.5 20.5t-20.5 49.5zM223 762h307v434q0 72 -44 120t-109 48q-66 0 -110 -48t-44 -120v-434zM410 1651q0 29 20.5 49t48.5 20q29 0 49.5 -20.5t20.5 -48.5q0 -29 -20.5 -49.5t-49.5 -20.5q-28 0 -48.5 20.5t-20.5 49.5z " />
<glyph unicode="&#xe5;" horiz-adv-x="753" d="M133 45v1151q0 70 34 129t90 94t120 35q63 0 119.5 -35t90.5 -94t34 -129v-1151q0 -18 -13.5 -31.5t-32.5 -13.5q-18 0 -31.5 13.5t-13.5 31.5v627h-307v-627q0 -18 -13 -31.5t-32 -13.5q-18 0 -31.5 13.5t-13.5 31.5zM223 762h307v434q0 72 -44 120t-109 48 q-66 0 -110 -48t-44 -120v-434zM256 1655q0 51 35 85t86 34t85 -34t34 -85t-34 -86t-85 -35t-86 35t-35 86zM319 1655q0 -25 16.5 -41.5t41.5 -16.5q22 0 38.5 16.5t16.5 41.5q0 23 -16.5 39t-38.5 16q-25 0 -41.5 -16.5t-16.5 -38.5z" />
<glyph unicode="&#xe6;" horiz-adv-x="999" d="M133 45v1151q0 70 34 129t90 94t120 35q66 0 119 -38t86 -101q35 57 85 88t107 31h68q18 0 31.5 -13.5t13.5 -31.5t-13.5 -32t-31.5 -14h-68q-66 0 -109.5 -48t-43.5 -119v-746h221q18 0 31.5 -13.5t13.5 -31.5t-13.5 -31.5t-31.5 -13.5h-221v-178q0 -29 22.5 -50.5 t50.5 -21.5h148q18 0 31.5 -13.5t13.5 -31.5t-13.5 -31.5t-31.5 -13.5h-148q-68 0 -116 47t-48 115v510h-307v-627q0 -18 -13 -31.5t-32 -13.5q-18 0 -31.5 13.5t-13.5 31.5zM223 762h307v434q0 72 -44 120t-109 48q-66 0 -110 -48t-44 -120v-434z" />
<glyph unicode="&#xe7;" horiz-adv-x="743" d="M133 227v979q0 102 75 175t179 73q106 0 180 -72.5t74 -175.5q0 -18 -13.5 -31.5t-31.5 -13.5t-31.5 13.5t-13.5 31.5q0 66 -47 112t-117 46q-68 0 -116 -46t-48 -112v-979q0 -66 48 -111.5t116 -45.5q70 0 117 46t47 111q0 18 13.5 31.5t31.5 13.5t31.5 -13t13.5 -32 q0 -94 -62.5 -163.5t-156.5 -81.5l-33 -88q53 2 90 -36t37 -102q0 -72 -42 -114.5t-112 -42.5q-47 0 -88 27.5t-41 60.5q0 16 12.5 28.5t28.5 12.5q20 0 33 -17q25 -31 55 -30q33 0 52.5 20t19.5 55q0 68 -53 68q-14 0 -25.5 -2t-19.5 -2q-14 0 -23.5 9t-9.5 26q0 6 4 22 l39 107q-92 14 -152.5 82.5t-60.5 160.5z" />
<glyph unicode="&#xe8;" horiz-adv-x="602" d="M133 162v1110q0 68 48 115t116 47h147q18 0 31.5 -13.5t13.5 -31.5t-13 -32t-32 -14h-147q-29 0 -51.5 -21.5t-22.5 -49.5v-842h221q18 0 31.5 -13.5t13.5 -31.5t-13 -31.5t-32 -13.5h-221v-178q0 -29 22.5 -50.5t51.5 -21.5h147q18 0 31.5 -13.5t13.5 -31.5t-13 -31.5 t-32 -13.5h-147q-68 0 -116 47t-48 115zM197 1683q0 18 13 32t32 14q10 0 26 -11l127 -110q14 -14 15 -31q0 -16 -12.5 -28.5t-28.5 -12.5q-12 0 -27 10l-129 105q-16 14 -16 32z" />
<glyph unicode="&#xe9;" horiz-adv-x="602" d="M133 162v1110q0 68 48 115t116 47h147q18 0 31.5 -13.5t13.5 -31.5t-13 -32t-32 -14h-147q-29 0 -51.5 -21.5t-22.5 -49.5v-842h221q18 0 31.5 -13.5t13.5 -31.5t-13 -31.5t-32 -13.5h-221v-178q0 -29 22.5 -50.5t51.5 -21.5h147q18 0 31.5 -13.5t13.5 -31.5t-13 -31.5 t-32 -13.5h-147q-68 0 -116 47t-48 115zM242 1577q0 16 14 31l127 110q16 10 27 11q18 0 31.5 -13.5t13.5 -32.5q0 -18 -17 -32l-129 -105q-14 -10 -26 -10q-17 0 -29 12.5t-12 28.5z" />
<glyph unicode="&#xea;" horiz-adv-x="602" d="M133 162v1110q0 68 48 115t116 47h147q18 0 31.5 -13.5t13.5 -31.5t-13 -32t-32 -14h-147q-29 0 -51.5 -21.5t-22.5 -49.5v-842h221q18 0 31.5 -13.5t13.5 -31.5t-13 -31.5t-32 -13.5h-221v-178q0 -29 22.5 -50.5t51.5 -21.5h147q18 0 31.5 -13.5t13.5 -31.5t-13 -31.5 t-32 -13.5h-147q-68 0 -116 47t-48 115zM150 1581q0 23 16 35l129 104q14 10 27 11q14 0 28 -11l129 -104q16 -12 17 -35q0 -12 -11 -27q-16 -16 -34 -16q-12 0 -27 10l-100 90l-103 -90q-14 -10 -26 -10q-18 0 -35 16q-10 14 -10 27z" />
<glyph unicode="&#xeb;" horiz-adv-x="602" d="M133 162v1110q0 68 48 115t116 47h147q18 0 31.5 -13.5t13.5 -31.5t-13 -32t-32 -14h-147q-29 0 -51.5 -21.5t-22.5 -49.5v-842h221q18 0 31.5 -13.5t13.5 -31.5t-13 -31.5t-32 -13.5h-221v-178q0 -29 22.5 -50.5t51.5 -21.5h147q18 0 31.5 -13.5t13.5 -31.5t-13 -31.5 t-32 -13.5h-147q-68 0 -116 47t-48 115zM152 1630q0 29 20.5 49.5t48.5 20.5q29 0 49.5 -20.5t20.5 -49.5t-20.5 -49t-49.5 -20q-28 0 -48.5 20.5t-20.5 48.5zM356 1630q0 29 20.5 49.5t49.5 20.5t49.5 -20.5t20.5 -49.5t-20.5 -49t-49.5 -20t-49.5 20.5t-20.5 48.5z" />
<glyph unicode="&#xec;" horiz-adv-x="552" d="M113 45q0 18 13 31.5t32 13.5q33 0 53 22.5t20 49.5v1110q0 27 -20.5 49t-52.5 22q-18 0 -31.5 13.5t-13.5 32.5q0 18 13 31.5t32 13.5q76 0 118 -62q43 61 119 62q18 0 31.5 -13.5t13.5 -31.5t-13 -32t-32 -14q-33 0 -53 -22.5t-20 -48.5v-1110q0 -27 20 -49.5t53 -22.5 q19 0 32 -13.5t13 -31.5t-13 -31.5t-32 -13.5q-76 0 -119 61q-43 -61 -118 -61q-18 0 -31.5 13.5t-13.5 31.5zM150 1683q0 18 13 32t32 14q10 0 26 -11l127 -110q14 -15 14 -31t-12 -28.5t-28 -12.5q-12 0 -27 10l-129 105q-16 14 -16 32z" />
<glyph unicode="&#xed;" horiz-adv-x="552" d="M113 45q0 18 13 31.5t32 13.5q33 0 53 22.5t20 49.5v1110q0 27 -20.5 49t-52.5 22q-18 0 -31.5 13.5t-13.5 32.5q0 18 13 31.5t32 13.5q76 0 118 -62q43 61 119 62q18 0 31.5 -13.5t13.5 -31.5t-13 -32t-32 -14q-33 0 -53 -22.5t-20 -48.5v-1110q0 -27 20 -49.5t53 -22.5 q19 0 32 -13.5t13 -31.5t-13 -31.5t-32 -13.5q-76 0 -119 61q-43 -61 -118 -61q-18 0 -31.5 13.5t-13.5 31.5z" />
<glyph unicode="&#xee;" horiz-adv-x="552" d="M102 1581q0 23 17 35l129 104q14 10 26 11q14 0 29 -11l129 -104q16 -12 17 -35q0 -12 -11 -27q-17 -16 -35 -16q-12 0 -26 10l-101 90l-102 -90q-14 -10 -27 -10q-18 0 -34 16q-10 14 -11 27zM113 45q0 18 13 31.5t32 13.5q33 0 53 22.5t20 49.5v1110q0 27 -20.5 49 t-52.5 22q-18 0 -31.5 13.5t-13.5 32.5q0 18 13 31.5t32 13.5q76 0 118 -62q43 61 119 62q18 0 31.5 -13.5t13.5 -31.5t-13 -32t-32 -14q-33 0 -53 -22.5t-20 -48.5v-1110q0 -27 20 -49.5t53 -22.5q19 0 32 -13.5t13 -31.5t-13 -31.5t-32 -13.5q-76 0 -119 61 q-43 -61 -118 -61q-18 0 -31.5 13.5t-13.5 31.5z" />
<glyph unicode="&#xef;" horiz-adv-x="552" d="M104 1630q0 29 20.5 49.5t49.5 20.5t49.5 -20.5t20.5 -49.5t-20.5 -49t-49.5 -20t-49.5 20.5t-20.5 48.5zM113 45q0 18 13 31.5t32 13.5q33 0 53 22.5t20 49.5v1110q0 27 -20.5 49t-52.5 22q-18 0 -31.5 13.5t-13.5 32.5q0 18 13 31.5t32 13.5q76 0 118 -62q43 61 119 62 q18 0 31.5 -13.5t13.5 -31.5t-13 -32t-32 -14q-33 0 -53 -22.5t-20 -48.5v-1110q0 -27 20 -49.5t53 -22.5q19 0 32 -13.5t13 -31.5t-13 -31.5t-32 -13.5q-76 0 -119 61q-43 -61 -118 -61q-18 0 -31.5 13.5t-13.5 31.5zM309 1630q0 29 20.5 49.5t49.5 20.5t49.5 -20.5 t20.5 -49.5t-20.5 -49t-49.5 -20t-49.5 20.5t-20.5 48.5z" />
<glyph unicode="&#xf0;" horiz-adv-x="772" d="M0 717q0 16 11.5 26.5t25.5 10.5h96v635q0 18 13.5 31.5t31.5 13.5h203q70 0 129 -34t94 -93.5t35 -130.5v-918q0 -72 -35 -131t-94 -93t-129 -34h-203q-18 0 -31.5 13.5t-13.5 31.5v635h-96q-14 0 -25.5 11t-11.5 26zM223 90h158q70 0 119 49t49 119v918q0 69 -49 118 t-119 49h-158v-589h154q16 0 26.5 -10.5t10.5 -26.5q0 -14 -10.5 -25.5t-26.5 -11.5h-154v-590z" />
<glyph unicode="&#xf1;" d="M133 45v1344q0 18 13.5 31.5t31.5 13.5q14 0 26.5 -8.5t16.5 -22.5l330 -1063v1049q0 18 13.5 31.5t31.5 13.5t31.5 -13.5t13.5 -31.5v-1344q0 -18 -13.5 -31.5t-31.5 -13.5q-14 0 -26.5 8t-16.5 23l-330 1063v-1049q0 -18 -13 -31.5t-32 -13.5q-18 0 -31.5 13.5 t-13.5 31.5zM199 1585q0 59 32.5 97t85.5 38q33 0 54.5 -15t44.5 -42q14 -18 23.5 -26.5t21.5 -8.5t20 14.5t8 36.5q0 16 12.5 28.5t28.5 12.5q17 0 29 -12t12 -29q0 -59 -32.5 -97t-85.5 -38q-33 0 -53.5 15.5t-41.5 42.5q-27 35 -47 34q-14 0 -22 -14t-8 -37 q0 -16 -12.5 -28.5t-28.5 -12.5t-28.5 12.5t-12.5 28.5z" />
<glyph unicode="&#xf2;" d="M133 227q0 -102 75 -174.5t179 -72.5q105 0 179.5 72.5t74.5 174.5v979q0 102 -74.5 175t-179.5 73q-104 0 -179 -72.5t-75 -175.5v-979zM223 227v979q0 66 48 112t116 46t116 -46t48 -112v-979q0 -66 -48 -111.5t-116 -45.5t-116 46t-48 111zM260 1704q0 18 13.5 31.5 t31.5 13.5q10 0 27 -10l127 -111q14 -15 14 -31t-12 -28.5t-29 -12.5q-12 0 -26 11l-130 104q-16 14 -16 33z" />
<glyph unicode="&#xf3;" d="M133 227q0 -102 75 -174.5t179 -72.5q105 0 179.5 72.5t74.5 174.5v979q0 102 -74.5 175t-179.5 73q-104 0 -179 -72.5t-75 -175.5v-979zM223 227v979q0 66 48 112t116 46t116 -46t48 -112v-979q0 -66 -48 -111.5t-116 -45.5t-116 46t-48 111zM305 1597q0 16 14 31 l127 111q17 10 27 10q18 0 31.5 -13.5t13.5 -31.5t-16 -33l-129 -104q-14 -10 -27 -11q-16 0 -28.5 12.5t-12.5 28.5z" />
<glyph unicode="&#xf4;" d="M133 227q0 -102 75 -174.5t179 -72.5q105 0 179.5 72.5t74.5 174.5v979q0 102 -74.5 175t-179.5 73q-104 0 -179 -72.5t-75 -175.5v-979zM213 1602q0 23 16 34l129 105q14 10 27 10q14 0 29 -10l129 -105q16 -12 16 -34q0 -12 -10 -27q-17 -16 -35 -16q-12 0 -27 10 l-100 90l-102 -90q-14 -10 -27 -10q-18 0 -35 16q-10 14 -10 27zM223 227v979q0 66 48 112t116 46t116 -46t48 -112v-979q0 -66 -48 -111.5t-116 -45.5t-116 46t-48 111z" />
<glyph unicode="&#xf5;" d="M133 227q0 -102 75 -174.5t179 -72.5q105 0 179.5 72.5t74.5 174.5v979q0 102 -74.5 175t-179.5 73q-104 0 -179 -72.5t-75 -175.5v-979zM201 1606q0 59 32.5 97t85.5 38q33 0 54.5 -15.5t44.5 -42.5q14 -18 23.5 -26t21.5 -8t20.5 14t8.5 37q0 16 12 28.5t28 12.5 q17 0 29 -12.5t12 -28.5q0 -59 -32.5 -97t-85.5 -38q-33 0 -53.5 15t-41.5 42q-27 35 -47 35q-14 0 -22 -14.5t-8 -36.5q0 -16 -12.5 -28.5t-28.5 -12.5t-28.5 12t-12.5 29zM223 227v979q0 66 48 112t116 46t116 -46t48 -112v-979q0 -66 -48 -111.5t-116 -45.5t-116 46 t-48 111z" />
<glyph unicode="&#xf6;" d="M133 227q0 -102 75 -174.5t179 -72.5q105 0 179.5 72.5t74.5 174.5v979q0 102 -74.5 175t-179.5 73q-104 0 -179 -72.5t-75 -175.5v-979zM215 1651q0 29 20.5 49t49.5 20t49 -20.5t20 -48.5q0 -29 -20.5 -49.5t-48.5 -20.5q-29 0 -49.5 20.5t-20.5 49.5zM223 227v979 q0 66 48 112t116 46t116 -46t48 -112v-979q0 -66 -48 -111.5t-116 -45.5t-116 46t-48 111zM420 1651q0 29 20.5 49t48.5 20q29 0 49.5 -20.5t20.5 -48.5q0 -29 -20.5 -49.5t-49.5 -20.5q-28 0 -48.5 20.5t-20.5 49.5z" />
<glyph unicode="&#xf8;" d="M133 227v979q0 102 75 175t179 73q45 0 90 -16l17 96q2 14 15 23.5t26 7.5q16 -4 25 -16.5t5 -28.5l-20 -119q45 -35 70.5 -86t25.5 -109v-979q0 -102 -74.5 -174.5t-179.5 -72.5q-47 0 -84 14l-16 -94q-4 -14 -17.5 -24.5t-27.5 -8.5q-37 14 -31 45l20 119 q-45 35 -71.5 86t-26.5 110zM223 227q0 -67 25 -104l215 1233q-27 8 -76 8q-68 0 -116 -46t-48 -112v-979zM317 78q27 -8 70 -8q68 0 116 46t48 111v979q0 68 -23 101z" />
<glyph unicode="&#xf9;" horiz-adv-x="753" d="M133 238v1151q0 18 13.5 31.5t31.5 13.5t31.5 -13.5t13.5 -31.5v-1151q0 -76 42 -122t112 -46t111.5 46t41.5 122v1151q0 18 13.5 31.5t31.5 13.5t32 -13.5t14 -31.5v-1151q0 -117 -68 -187.5t-176 -70.5q-109 0 -176.5 70.5t-67.5 187.5zM250 1683q0 18 13 32t32 14 q10 0 27 -11l127 -110q14 -15 14 -31t-12.5 -28.5t-28.5 -12.5q-12 0 -27 10l-129 105q-16 14 -16 32z" />
<glyph unicode="&#xfa;" horiz-adv-x="753" d="M133 238v1151q0 18 13.5 31.5t31.5 13.5t31.5 -13.5t13.5 -31.5v-1151q0 -76 42 -122t112 -46t111.5 46t41.5 122v1151q0 18 13.5 31.5t31.5 13.5t32 -13.5t14 -31.5v-1151q0 -117 -68 -187.5t-176 -70.5q-109 0 -176.5 70.5t-67.5 187.5zM295 1577q0 16 14 31l127 110 q17 11 27 11q18 0 31.5 -13.5t13.5 -32.5q0 -18 -16 -32l-130 -105q-14 -10 -26 -10q-16 0 -28.5 12.5t-12.5 28.5z" />
<glyph unicode="&#xfb;" horiz-adv-x="753" d="M133 238v1151q0 18 13.5 31.5t31.5 13.5t31.5 -13.5t13.5 -31.5v-1151q0 -76 42 -122t112 -46t111.5 46t41.5 122v1151q0 18 13.5 31.5t31.5 13.5t32 -13.5t14 -31.5v-1151q0 -117 -68 -187.5t-176 -70.5q-109 0 -176.5 70.5t-67.5 187.5zM203 1581q0 23 16 35l129 104 q14 10 27 11q14 0 28 -11l129 -104q16 -12 17 -35q0 -12 -10 -27q-17 -16 -35 -16q-12 0 -27 10l-100 90l-103 -90q-14 -10 -26 -10q-18 0 -35 16q-10 14 -10 27z" />
<glyph unicode="&#xfc;" horiz-adv-x="753" d="M133 238v1151q0 18 13.5 31.5t31.5 13.5t31.5 -13.5t13.5 -31.5v-1151q0 -76 42 -122t112 -46t111.5 46t41.5 122v1151q0 18 13.5 31.5t31.5 13.5t32 -13.5t14 -31.5v-1151q0 -117 -68 -187.5t-176 -70.5q-109 0 -176.5 70.5t-67.5 187.5zM205 1630q0 29 20.5 49.5 t48.5 20.5q29 0 49.5 -20.5t20.5 -49.5t-20.5 -49t-49.5 -20q-28 0 -48.5 20.5t-20.5 48.5zM410 1630q0 29 20.5 49.5t48.5 20.5q29 0 49.5 -20.5t20.5 -49.5t-20.5 -49t-49.5 -20q-28 0 -48.5 20.5t-20.5 48.5z" />
<glyph unicode="&#xfd;" horiz-adv-x="663" d="M63 1391q0 18 14.5 30.5t33.5 12.5q31 0 41 -31l182 -526l180 526q10 31 41 31q18 0 32.5 -12.5t14.5 -30.5q0 -10 -2 -17l-221 -641v-688q0 -18 -13.5 -31.5t-31.5 -13.5t-31.5 13.5t-13.5 31.5v688l-223 641q-2 6 -3 17zM252 1577q0 16 14 31l127 110q17 11 27 11 q18 0 31.5 -13.5t13.5 -32.5q0 -18 -16 -32l-130 -105q-14 -10 -26 -10q-16 0 -28.5 12.5t-12.5 28.5z" />
<glyph unicode="&#xfe;" horiz-adv-x="772" d="M0 717q0 16 11.5 26.5t25.5 10.5h96v635q0 18 13.5 31.5t31.5 13.5h203q70 0 129 -34t94 -93.5t35 -130.5v-918q0 -72 -35 -131t-94 -93t-129 -34h-203q-18 0 -31.5 13.5t-13.5 31.5v635h-96q-14 0 -25.5 11t-11.5 26zM223 90h158q70 0 119 49t49 119v918q0 69 -49 118 t-119 49h-158v-589h154q16 0 26.5 -10.5t10.5 -26.5q0 -14 -10.5 -25.5t-26.5 -11.5h-154v-590z" />
<glyph unicode="&#xff;" horiz-adv-x="663" d="M63 1391q0 18 14.5 30.5t33.5 12.5q31 0 41 -31l182 -526l180 526q10 31 41 31q18 0 32.5 -12.5t14.5 -30.5q0 -10 -2 -17l-221 -641v-688q0 -18 -13.5 -31.5t-31.5 -13.5t-31.5 13.5t-13.5 31.5v688l-223 641q-2 6 -3 17zM162 1630q0 29 20.5 49.5t48.5 20.5 q29 0 49.5 -20.5t20.5 -49.5t-20.5 -49t-49.5 -20q-28 0 -48.5 20.5t-20.5 48.5zM367 1630q0 29 20.5 49.5t48.5 20.5q29 0 49.5 -20.5t20.5 -49.5t-20.5 -49t-49.5 -20q-28 0 -48.5 20.5t-20.5 48.5z" />
<glyph unicode="&#x152;" horiz-adv-x="1019" d="M133 227v979q0 102 75 175t179 73q72 0 127 -37t86 -106q35 61 86 92t109 31h67q18 0 31.5 -13.5t13.5 -31.5t-13 -32t-32 -14h-67q-66 0 -110 -48t-44 -119v-394h221q18 0 31.5 -13t13.5 -32q0 -18 -13 -31.5t-32 -13.5h-221v-434q0 -72 44 -120t110 -48h67 q18 0 31.5 -13.5t13.5 -31.5t-13 -31.5t-32 -13.5h-67q-59 0 -111.5 31.5t-83.5 91.5q-35 -70 -89 -106.5t-124 -36.5q-104 0 -179 72.5t-75 174.5zM223 227q0 -66 48 -111.5t116 -45.5t116 46t48 111v979q0 66 -48 112t-116 46t-116 -46t-48 -112v-979z" />
<glyph unicode="&#x153;" horiz-adv-x="1019" d="M133 227v979q0 102 75 175t179 73q72 0 127 -37t86 -106q35 61 86 92t109 31h67q18 0 31.5 -13.5t13.5 -31.5t-13 -32t-32 -14h-67q-66 0 -110 -48t-44 -119v-394h221q18 0 31.5 -13t13.5 -32q0 -18 -13 -31.5t-32 -13.5h-221v-434q0 -72 44 -120t110 -48h67 q18 0 31.5 -13.5t13.5 -31.5t-13 -31.5t-32 -13.5h-67q-59 0 -111.5 31.5t-83.5 91.5q-35 -70 -89 -106.5t-124 -36.5q-104 0 -179 72.5t-75 174.5zM223 227q0 -66 48 -111.5t116 -45.5t116 46t48 111v979q0 66 -48 112t-116 46t-116 -46t-48 -112v-979z" />
<glyph unicode="&#x178;" horiz-adv-x="663" d="M63 1391q0 18 14.5 30.5t33.5 12.5q31 0 41 -31l182 -526l180 526q10 31 41 31q18 0 32.5 -12.5t14.5 -30.5q0 -10 -2 -17l-221 -641v-688q0 -18 -13.5 -31.5t-31.5 -13.5t-31.5 13.5t-13.5 31.5v688l-223 641q-2 6 -3 17zM162 1630q0 29 20.5 49.5t48.5 20.5 q29 0 49.5 -20.5t20.5 -49.5t-20.5 -49t-49.5 -20q-28 0 -48.5 20.5t-20.5 48.5zM367 1630q0 29 20.5 49.5t48.5 20.5q29 0 49.5 -20.5t20.5 -49.5t-20.5 -49t-49.5 -20q-28 0 -48.5 20.5t-20.5 48.5z" />
<glyph unicode="&#x2000;" horiz-adv-x="887" />
<glyph unicode="&#x2001;" horiz-adv-x="1774" />
<glyph unicode="&#x2002;" horiz-adv-x="887" />
<glyph unicode="&#x2003;" horiz-adv-x="1774" />
<glyph unicode="&#x2004;" horiz-adv-x="591" />
<glyph unicode="&#x2005;" horiz-adv-x="443" />
<glyph unicode="&#x2006;" horiz-adv-x="295" />
<glyph unicode="&#x2007;" horiz-adv-x="295" />
<glyph unicode="&#x2008;" horiz-adv-x="221" />
<glyph unicode="&#x2009;" horiz-adv-x="354" />
<glyph unicode="&#x200a;" horiz-adv-x="98" />
<glyph unicode="&#x2010;" horiz-adv-x="579" d="M0 512q0 18 13.5 31.5t31.5 13.5h490q18 0 31.5 -13.5t13.5 -31.5t-13.5 -31.5t-31.5 -13.5h-490q-18 0 -31.5 13.5t-13.5 31.5z" />
<glyph unicode="&#x2011;" horiz-adv-x="579" d="M0 512q0 18 13.5 31.5t31.5 13.5h490q18 0 31.5 -13.5t13.5 -31.5t-13.5 -31.5t-31.5 -13.5h-490q-18 0 -31.5 13.5t-13.5 31.5z" />
<glyph unicode="&#x2012;" horiz-adv-x="579" d="M0 512q0 18 13.5 31.5t31.5 13.5h490q18 0 31.5 -13.5t13.5 -31.5t-13.5 -31.5t-31.5 -13.5h-490q-18 0 -31.5 13.5t-13.5 31.5z" />
<glyph unicode="&#x2013;" horiz-adv-x="724" d="M0 512q0 18 13.5 31.5t31.5 13.5h635q18 0 31.5 -13.5t13.5 -31.5t-13.5 -31.5t-31.5 -13.5h-635q-18 0 -31.5 13.5t-13.5 31.5z" />
<glyph unicode="&#x2014;" horiz-adv-x="874" d="M0 512q0 18 13.5 31.5t31.5 13.5h784q19 0 32 -13.5t13 -31.5t-13 -31.5t-32 -13.5h-784q-18 0 -31.5 13.5t-13.5 31.5z" />
<glyph unicode="&#x2018;" horiz-adv-x="180" d="M20 1231q0 14 9 39l43 133q4 14 15 22.5t24 8.5q20 0 32.5 -14.5t6.5 -37.5l-23 -94q33 -18 33 -55q0 -31 -19.5 -50.5t-52.5 -19.5q-31 0 -49.5 18.5t-18.5 49.5z" />
<glyph unicode="&#x2019;" horiz-adv-x="180" d="M20 1364q0 31 19.5 50.5t52.5 19.5q31 0 49.5 -18.5t18.5 -49.5q0 -14 -8 -39l-43 -133q-5 -14 -16 -22.5t-23 -8.5q-20 0 -32.5 14.5t-6.5 36.5l22 95q-33 18 -33 55z" />
<glyph unicode="&#x201a;" horiz-adv-x="180" d="M20 68q0 31 19.5 50t52.5 19q31 0 49.5 -18.5t18.5 -48.5q0 -14 -8 -39l-43 -133q-5 -15 -16 -23t-23 -8q-20 0 -32.5 14.5t-6.5 36.5l22 94q-33 18 -33 56z" />
<glyph unicode="&#x201c;" horiz-adv-x="364" d="M20 1231q0 14 9 39l43 133q4 14 15 22.5t24 8.5q20 0 32.5 -14.5t6.5 -37.5l-23 -94q33 -18 33 -55q0 -31 -19.5 -50.5t-52.5 -19.5q-31 0 -49.5 18.5t-18.5 49.5zM205 1231q0 14 8 39l43 133q4 14 15.5 22.5t23.5 8.5q20 0 32.5 -14.5t6.5 -37.5l-23 -94q33 -18 33 -55 q0 -31 -19.5 -50.5t-52.5 -19.5q-31 0 -49 18.5t-18 49.5z" />
<glyph unicode="&#x201d;" horiz-adv-x="364" d="M20 1364q0 31 19.5 50.5t52.5 19.5q31 0 49.5 -18.5t18.5 -49.5q0 -14 -8 -39l-43 -133q-5 -14 -16 -22.5t-23 -8.5q-20 0 -32.5 14.5t-6.5 36.5l22 95q-33 18 -33 55zM205 1364q0 31 19.5 50.5t51.5 19.5q31 0 49.5 -18.5t18.5 -49.5q0 -14 -8 -39l-43 -133 q-4 -14 -15.5 -22.5t-23.5 -8.5q-20 0 -32.5 14.5t-6.5 36.5l23 95q-33 18 -33 55z" />
<glyph unicode="&#x201e;" horiz-adv-x="364" d="M20 68q0 31 19.5 50t52.5 19q31 0 49.5 -18.5t18.5 -48.5q0 -14 -8 -39l-43 -133q-5 -15 -16 -23t-23 -8q-20 0 -32.5 14.5t-6.5 36.5l22 94q-33 18 -33 56zM205 68q0 31 19.5 50t51.5 19q31 0 49.5 -18.5t18.5 -48.5q0 -14 -8 -39l-43 -133q-4 -15 -15.5 -23t-23.5 -8 q-20 0 -32.5 14.5t-6.5 36.5l23 94q-33 18 -33 56z" />
<glyph unicode="&#x2022;" horiz-adv-x="641" d="M102 514q0 -90 63.5 -154.5t153.5 -64.5t155 64.5t65 154.5t-63.5 153.5t-153.5 63.5t-155 -63.5t-65 -153.5z" />
<glyph unicode="&#x2026;" d="M51 70q0 29 20.5 48t49.5 19t49 -19.5t20 -47.5q0 -29 -20 -49.5t-49 -20.5t-49.5 20.5t-20.5 49.5zM317 70q0 29 20.5 48t49.5 19t49.5 -19.5t20.5 -47.5q0 -29 -20.5 -49.5t-49.5 -20.5t-49.5 20.5t-20.5 49.5zM584 70q0 29 20.5 48t48.5 19q29 0 49.5 -19.5 t20.5 -47.5q0 -29 -20.5 -49.5t-49.5 -20.5q-28 0 -48.5 20.5t-20.5 49.5z" />
<glyph unicode="&#x202f;" horiz-adv-x="354" />
<glyph unicode="&#x205f;" horiz-adv-x="443" />
<glyph unicode="&#x20ac;" horiz-adv-x="784" d="M0 625q0 16 11.5 26.5t25.5 10.5h117v110h-117q-14 0 -25.5 11.5t-11.5 25.5q0 16 11.5 26.5t25.5 10.5h117v360q0 102 74.5 175t179.5 73q106 0 180 -72.5t74 -175.5q0 -18 -13.5 -31.5t-32.5 -13.5q-18 0 -31.5 13.5t-13.5 31.5q0 66 -47 112t-116 46q-68 0 -116 -46 t-48 -112v-360h227q16 0 26.5 -10.5t10.5 -26.5q0 -14 -10.5 -25.5t-26.5 -11.5h-227v-110h227q16 0 26.5 -10.5t10.5 -26.5q0 -14 -10.5 -25.5t-26.5 -11.5h-227v-361q0 -66 48 -111.5t116 -45.5q70 0 116.5 46t46.5 111q0 18 13.5 31.5t31.5 13.5q19 0 32.5 -13t13.5 -32 q0 -102 -74 -174.5t-180 -72.5q-104 0 -179 72.5t-75 174.5v361h-117q-14 0 -25.5 11t-11.5 26z" />
<glyph unicode="&#x25fc;" horiz-adv-x="1433" d="M0 0v1434h1434v-1434h-1434z" />
</font>
</defs>
</svg>
